<svg width="136" height="68" fill="none" xmlns="http://www.w3.org/2000/svg"><mask id="a" style="mask-type:luminance" maskUnits="userSpaceOnUse" x="2" y="21" width="131" height="25"><path d="M133 21H2v25h131V21Z" fill="#fff"/></mask><g mask="url(#a)"><path d="M51.233 39.45c-.306-.696-.596-1.4-.889-2.102-1.41-3.368-2.819-6.739-4.225-10.112-.091-.22-.204-.282-.435-.281-2.13.008-4.26.008-6.39 0-.256 0-.385.037-.369.332.026.482.02.966 0 1.449-.008.24.075.307.313.302.648-.015 1.298.006 1.946-.01.32-.008.344.083.228.354-.777 1.83-1.54 3.667-2.308 5.502l-2.02 4.845c1.061 0 2.061-.006 3.062 0 .213 0 .25-.117.306-.266.257-.682.53-1.364.776-2.052.083-.227.185-.33.449-.328 1.651.012 3.302.012 4.952 0 .236 0 .348.068.427.292.24.678.509 1.346.766 2.018.069.18.12.345.393.34.945-.017 1.89-.013 2.835 0 .262.004.277-.069.184-.282Zm-5.559-4.668c-1.026-.02-2.054-.008-3.084-.005-.199 0-.339 0-.238-.264.564-1.452 1.117-2.908 1.676-4.36.035-.068.077-.133.123-.194.285.716.554 1.392.82 2.07.312.796.615 1.596.932 2.391.099.246.117.37-.229.362ZM62.364 30.656c0-.243-.09-.304-.322-.301-.746.011-1.492.013-2.241 0-.249 0-.318.088-.305.315.014.27 0 .541 0 .93-1.646-2.1-5.165-1.817-6.598.292-.818 1.199-.988 2.533-.79 3.925.398 2.815 3.11 4.446 5.803 3.495.562-.195 1.011-.56 1.48-1.072v.804c-.015 1.17-.58 1.885-1.733 2.19-1.088.288-2.15.125-3.2-.195-.522-.16-.994-.427-1.536-.734 0 .682.023 1.28-.008 1.881-.017.331.106.5.404.628a8.675 8.675 0 0 0 5.905.413c1.934-.535 3.084-1.997 3.115-3.957.044-2.875.016-5.744.026-8.614Zm-3.322 6.164a3.116 3.116 0 0 1-1.91.549c-1.317-.062-2.163-1.108-2.115-2.59.04-1.224.597-2.07 1.603-2.308.958-.23 1.836-.008 2.614.594a.437.437 0 0 1 .164.39c-.006.468 0 .936 0 1.404 0 .428-.025.856.009 1.281.022.323-.114.514-.365.68ZM95.636 32.312c-.93-1.831-3.156-2.625-5.12-1.937a3.52 3.52 0 0 0-1.393.961c-.132-.164-.081-.306-.082-.437 0-1.34-.007-2.678 0-4.017 0-.234-.035-.348-.318-.34-.789.018-1.579.014-2.368 0-.245 0-.308.077-.307.307.006 4.198.006 8.394 0 12.59 0 .195.028.3.27.292.775-.015 1.55-.015 2.326 0 .236 0 .284-.089.273-.292-.014-.268 0-.538 0-.9.228.227.371.39.534.53 1.665 1.444 4.612 1.071 5.89-.82 1.278-1.893 1.313-3.93.296-5.937Zm-3.144 4.849c-.889.78-2.487.584-3.383-.218-.11-.098-.077-.23-.078-.35V35.02c0-.456.027-.914-.01-1.364-.027-.352.12-.555.399-.745 1.015-.697 2.458-.63 3.224.165.973 1.01.896 3.157-.152 4.085Z" fill="#000"/><path d="M14.554 45.824c-.007.048-.014.098-.022.143-.14.008-.28.024-.42.024-3.88 0-7.76 0-11.632.009-.347 0-.482-.045-.48-.44.019-3.81.011-7.62.012-11.431 0-.124.009-.248.014-.372l.22.006c.074.062.152.122.222.189 3.964 3.885 7.928 7.77 11.891 11.657.07.068.13.14.195.215ZM14.551 21.195c-.074.083-.144.168-.224.246L2.47 33.063c-.07.066-.148.126-.222.188h-.221L2.011 22.58c0-.41.018-.828-.01-1.24-.013-.282.099-.339.361-.339 1.902.01 3.805 0 5.707.006 2.155 0 4.31.004 6.466.014l.016.175ZM27.19 45.999c-4.031-.01-8.064-.013-12.097-.01a.67.67 0 0 1-.124-.022c-.006-.044-.01-.09-.017-.134.064-.072.126-.148.193-.216l11.896-11.658c.08-.078.167-.148.25-.22l.184.098.014 6.128v5.674c.004.216.003.36-.298.36ZM27.496 21.299c-.014 3.985-.022 7.97-.022 11.954l-.183.015c-.083-.072-.172-.141-.25-.218a65671.66 65671.66 0 0 1-11.86-11.628c-.08-.077-.15-.163-.223-.246 0-.051.005-.104.009-.157l8.577-.014h3.59c.222-.005.363.004.362.294Z" fill="#00CD69"/><path d="M132.895 39.656c-.199.235-.716.065-1.095.072-.634.012-1.27-.008-1.904.009a.535.535 0 0 1-.512-.267c-.707-1.064-1.444-2.109-2.134-3.181-.225-.351-.474-.473-.887-.455-.755.034-.756.01-.756.74 0 .94-.01 1.879.007 2.818 0 .27-.073.352-.35.345a51.633 51.633 0 0 0-2.288 0c-.26 0-.365-.044-.364-.333.01-4.171.01-8.342 0-12.512 0-.269.07-.358.353-.35.732.018 1.466.023 2.199 0 .346-.014.449.077.447.427-.017 2.126 0 4.254-.018 6.379 0 .355.113.4.445.434.654.067 1.047-.154 1.387-.713.512-.84 1.14-1.61 1.699-2.42.142-.207.285-.3.543-.293.847.017 1.692.006 2.636.006l-2.102 2.933c-.114.16-.23.315-.342.474-.555.787-.556.788.01 1.593.464.658.951 1.3 1.393 1.974.216.33.459.45.859.435.835-.034.838-.011.834.813.005.366.13.853-.06 1.072ZM108.076 37.947c-.74.06-.931-.134-.934-.862 0-1.169.019-2.347-.014-3.519-.034-1.158-.544-2.118-1.586-2.665-2.283-1.198-4.586-.934-6.864.086a.296.296 0 0 0-.137.118.288.288 0 0 0-.041.174c.006.663 0 1.324 0 2.03.057-.012.114-.028.169-.048.112-.058.222-.12.332-.181 1.194-.651 2.469-.917 3.827-.691.84.14 1.341.692 1.417 1.47.031.311.006.43-.388.354-1.492-.292-2.975-.278-4.397.328-1.947.83-2.379 3.02-.896 4.442 1.37 1.304 4.385 1.272 5.544-.019.176-.195.267-.228.409.035.157.281.404.505.702.638.964.46 1.937.375 2.913.038.168-.058.187-.179.185-.327v-1.16c.013-.17.003-.26-.241-.241Zm-4.35-.406c-.733.46-1.515.566-2.335.28-.431-.151-.705-.458-.705-.93 0-.448.249-.756.661-.92.918-.367 1.852-.261 2.772-.012.319.087.057.416.14.608.129.493-.175.75-.533.974ZM120.188 39.447c0 .21-.056.292-.285.292a71.301 71.301 0 0 0-2.412 0c-.314.006-.289-.166-.289-.369 0-1.616-.006-3.232 0-4.847 0-.774-.106-1.509-.935-1.824-.907-.345-1.791-.232-2.605.338-.199.137-.199.31-.199.505 0 1.92-.007 3.84.01 5.76 0 .337-.078.453-.438.438a28.944 28.944 0 0 0-2.157 0c-.33.013-.392-.097-.391-.394.013-2.196 0-4.392.018-6.588 0-.385-.117-.469-.473-.443-.408.029-.818 0-1.227.01-.208.005-.312-.04-.304-.272.015-.469.012-.94 0-1.408 0-.21.062-.293.288-.293 1.299.008 2.597.008 3.894 0 .221 0 .286.086.321.28.06.338.151.671.241 1.057 1.322-1.45 2.899-1.851 4.713-1.33 1.313.378 2.167 1.45 2.189 2.79.056 2.1.032 4.2.041 6.298ZM83.901 32.577c-1.03-1.754-2.723-2.384-4.486-2.43-.74.01-1.258.05-1.766.18-1.797.462-3.085 1.496-3.582 3.277-.513 1.84-.21 3.563 1.239 4.927 1.37 1.29 3.084 1.615 4.91 1.339 4.257-.65 5.186-4.742 3.685-7.293Zm-2.346 2.51c-.028.96-.325 1.786-1.227 2.297-1.115.631-2.62.18-3.174-.957-.473-.974-.45-1.949.077-2.898.473-.856 1.518-1.267 2.546-1.032.959.216 1.683 1.102 1.777 2.178.011.137.001.275.001.412ZM72.933 30.744a16.88 16.88 0 0 0-.007 1.738c.008.292 0 .436-.398.367-.915-.159-1.826-.106-2.677.326-.59.298-.931.698-.906 1.427.053 1.585.009 3.175.022 4.76 0 .283-.067.39-.373.379a36.628 36.628 0 0 0-2.199 0c-.328.01-.425-.073-.422-.407.016-2.194 0-4.384.017-6.582 0-.338-.073-.463-.435-.437-.42.032-.844 0-1.267.011-.219.008-.298-.061-.298-.28.012-.47.011-.939 0-1.408 0-.215.072-.292.298-.286 1.296.008 2.593.008 3.89 0 .228 0 .29.097.326.282.087.418.186.835.27 1.254.022.112.039.215.143.281.666-1.35 1.592-2.067 3.468-1.993.38.016.584.132.548.568ZM14.967 21.02c0 .053-.006.105-.009.157-.141-.144-.276-.106-.407.018-.006-.056-.01-.114-.017-.17l.433-.005ZM14.969 45.968h-.434l.022-.142c.13.132.262.162.398.009.003.044.008.089.014.133ZM2.247 33.252c-.025.047-.05.097-.078.143-.16.064-.179-.01-.143-.14l.22-.004ZM2.246 33.764l-.22-.006c-.02-.081-.03-.157.072-.195l.148.2ZM27.475 33.838l-.184-.097.114-.169c.129.063.087.168.07.266ZM27.405 33.438l-.114-.17.183-.014c.025.079.036.153-.07.184Z" fill="#000"/></g></svg>