<svg width="136" height="68" fill="none" xmlns="http://www.w3.org/2000/svg"><path fill-rule="evenodd" clip-rule="evenodd" d="m41.013 29.329 4.936-4.936a13.837 13.837 0 0 0-21.55 17.227 13.835 13.835 0 0 0 21.55 1.657l-4.936-4.935c-1.45 1.666-3.078 2.385-5.296 2.338a5.157 5.157 0 0 1-2.24-.56c-.721-.366-.746-1.446.105-1.557a6.166 6.166 0 0 0 2.23-.756c.464.273 1.587.622 2.228.76a5.173 5.173 0 0 0 1.918-1.337c-.745.285-2.725-.084-3.426-.464v-1.567l1.486-1.462h-3.623V30.67a1.05 1.05 0 0 0-.941-1.047l-2.785-.296a6.851 6.851 0 0 1 10.344 0l-2.947 2.947v-1.638a1.046 1.046 0 0 1 .916-1.043l2.031-.266v.003Zm-8.603 5.128h1.928l.757.743v1.567c-.704.382-2.727.75-3.472.457-.855-.351-1.527-2.88.788-2.763l-.002-.004Zm.381-1.264c-1.232 0-2.673-1.047-2.673-2.356l2.675.285-.002 2.071Z" fill="url(#a)"/><path fill-rule="evenodd" clip-rule="evenodd" d="M54.075 34.618a3.944 3.944 0 0 0 1.794-.406 3.494 3.494 0 0 0 1.293-1.039L55.87 31.92c-.482.556-1.029.83-1.661.83a1.62 1.62 0 0 1-1.198-.49 1.816 1.816 0 0 1 0-2.463 1.636 1.636 0 0 1 1.208-.5c.57 0 1.122.264 1.622.792l1.227-1.33c-.651-.82-1.736-1.34-2.981-1.34a3.494 3.494 0 0 0-2.564 1.028c-.69.68-1.039 1.548-1.039 2.605s.34 1.906 1.019 2.575a3.56 3.56 0 0 0 2.563.998l.01-.006Zm10.244-.104-2.406-6.98h-1.916l-2.483 6.98h2.011l.35-1.14h2.103l.33 1.14h2.01Zm-3.973-2.83.604-1.926.585 1.926h-1.189Zm7.024 2.83v-3.016l1.585 2.181h.765l1.586-2.18v3.02h1.944v-6.98h-1.53l-2.377 3.384-2.388-3.379H65.44v6.98l1.93-.01Zm12.13-3.832a1.517 1.517 0 0 0 .964-1.424 1.59 1.59 0 0 0-.549-1.208c-.367-.339-.877-.509-1.528-.51h-3.388v6.98h3.562c.67 0 1.217-.189 1.642-.57a1.928 1.928 0 0 0 .632-1.492c0-.867-.463-1.566-1.33-1.764l-.004-.012Zm-1.49-1.5a.492.492 0 0 1 .528.5c0 .265-.188.492-.613.492h-.997v-.997l1.081.005Zm-1.086 3.671v-1.14h1.265c.406 0 .622.254.622.57 0 .316-.206.57-.688.57h-1.2Zm11.206 1.66-1.424-2.519c.822-.414 1.199-1.208 1.199-2.085a2.31 2.31 0 0 0-.67-1.7c-.444-.444-1.105-.662-1.972-.662h-3.04v6.98h1.963v-2.188h.602l1.106 2.18 2.236-.005Zm-2.89-5.185a.609.609 0 0 1 .642.652c0 .367-.226.66-.69.66h-1.006v-1.312h1.054Zm4.203 5.19h1.982v-6.98h-1.98v6.98h-.002Zm6.62 0c1.112 0 1.98-.311 2.604-.934.632-.623.944-1.472.944-2.547 0-1.075-.312-1.936-.934-2.564-.623-.628-1.482-.934-2.596-.934h-2.906v6.98h2.888Zm-.925-5.086h1.019a1.232 1.232 0 0 1 1.047.473c.25.32.38.716.369 1.122a1.77 1.77 0 0 1-.37 1.14 1.23 1.23 0 0 1-1.046.47H95.14v-3.205h-.002Zm9.301 5.186c1.198 0 2.265-.435 3.198-1.294v-3.099h-3.167v1.66h1.406v.415c-.274.237-.84.453-1.406.453a1.648 1.648 0 0 1-1.282-.508 1.794 1.794 0 0 1-.471-1.237 1.67 1.67 0 0 1 1.062-1.589c.217-.086.45-.126.684-.118.55.002 1.081.199 1.5.555l1.226-1.481a4.043 4.043 0 0 0-2.706-.953c-1.086 0-1.982.34-2.707 1.02-.725.68-1.075 1.538-1.075 2.595a3.457 3.457 0 0 0 1.038 2.575c.698.671 1.594 1.01 2.69 1.01l.01-.004Zm9.903-.104v-1.808h-3.218v-.773h2.991V30.13h-2.991v-.775h3.236v-1.812h-5.219v6.98l5.201-.01ZM53.234 40.126v-.691H51.84v-2.18h-.73v2.87h2.124Zm2.596 0v-.665h-1.34v-.428h1.242v-.668H54.49v-.427h1.343v-.672H53.76v2.87l2.071-.01Zm3.15 0-1.021-2.87h-.676l-1.048 2.87h.75l.17-.524h.913l.167.524h.745Zm-1.642-1.154.284-.855.272.855h-.556Zm4.48 1.154-.623-1.064a.906.906 0 0 0 .524-.855.916.916 0 0 0-.268-.68 1.046 1.046 0 0 0-.783-.271H59.47v2.87h.727v-.95h.285l.504.951.83-.001Zm-1.159-2.205c.405-.032.439.644-.027.62h-.434v-.62h.461Zm3.574.891-1.327-1.556h-.52v2.87h.712v-1.539l1.305 1.539h.548v-2.87h-.712v1.556h-.006Zm1.473 1.314h.73v-2.87h-.73v2.87Zm3.338-1.314-1.325-1.556h-.52v2.87h.712v-1.539l1.304 1.539h.548v-2.87h-.712v1.556h-.007Zm2.849 1.356a1.829 1.829 0 0 0 1.316-.548v-1.242h-1.31v.621h.653v.25c-.181.148-.409.23-.644.229a.75.75 0 0 1-.57-.234.795.795 0 0 1-.216-.558.761.761 0 0 1 .792-.785c.25 0 .491.094.675.263l.462-.54a1.678 1.678 0 0 0-1.13-.418 1.544 1.544 0 0 0-1.102.418 1.53 1.53 0 0 0-.016 2.128 1.504 1.504 0 0 0 1.095.416h-.005Zm4.06 0c.255.004.507-.053.734-.166.208-.1.39-.246.533-.428l-.481-.461a.946.946 0 0 1-.738.369.755.755 0 0 1-.772-.78.781.781 0 0 1 .22-.57.748.748 0 0 1 .556-.225.982.982 0 0 1 .722.357l.462-.486a1.535 1.535 0 0 0-1.231-.57 1.451 1.451 0 0 0-1.48 1.495 1.416 1.416 0 0 0 .912 1.37c.18.07.373.103.567.098l-.003-.003Zm3.867-.042v-.665h-1.34v-.428h1.243v-.668h-1.244v-.427h1.344v-.672h-2.077v2.87l2.074-.01Zm2.53-1.314-1.33-1.556h-.524v2.87h.713v-1.539l1.304 1.539h.547v-2.87h-.712v1.556h.002Zm2.035 1.314h.734v-2.171h.792v-.7h-2.322v.7h.796v2.17Zm4.131 0v-.665h-1.34v-.428h1.243v-.668h-1.243v-.427h1.34v-.672h-2.075v2.87l2.075-.01Zm3.027 0-.623-1.064a.905.905 0 0 0 .525-.855.916.916 0 0 0-.268-.68 1.045 1.045 0 0 0-.784-.271h-1.196v2.87h.726v-.95h.285l.505.951.83-.001Zm-1.158-2.205c.404-.032.439.644-.027.62h-.428v-.62h.455Z" fill="#2C1F82"/><defs><linearGradient id="a" x1="33.921" y1="36.028" x2="43.544" y2="25.001" gradientUnits="userSpaceOnUse"><stop stop-color="#2C1F82"/><stop offset="1" stop-color="#00A6E8"/></linearGradient></defs></svg>