<svg width="136" height="68" fill="none" xmlns="http://www.w3.org/2000/svg"><mask id="a" style="mask-type:luminance" maskUnits="userSpaceOnUse" x="2" y="21" width="131" height="26"><path d="M132.599 21H2.564v25.915H132.6V21Z" fill="#fff"/></mask><g mask="url(#a)"><path d="M32.855 41.35a921.444 921.444 0 0 0-5.423 5.425c-.191.192-.298.177-.483-.008-1.02-1.031-2.054-2.05-3.083-3.074-3.166-3.15-6.335-6.296-9.508-9.438-.284-.28-.277-.42 0-.688 1.501-1.44 2.99-2.899 4.48-4.352.077-.075.157-.146.252-.232.089.079.167.137.224.202.402.4.792.814 1.21 1.2.213.195.166.308-.02.483-.968.951-1.92 1.917-2.895 2.861-.219.212-.229.334 0 .549 3.076 3.06 6.145 6.129 9.206 9.206.224.224.334.209.554-.008 1.24-1.258 2.502-2.502 3.738-3.758.237-.244.37-.234.589 0 .359.396.746.772 1.134 1.139.184.182.232.292.025.494Z" fill="#2D9A44"/><path d="M28.463 34.26a484.166 484.166 0 0 0-4.537 4.422c-.217.215-.334.242-.554 0a16.587 16.587 0 0 0-1.136-1.138c-.217-.197-.213-.308 0-.512.963-.934 1.9-1.895 2.87-2.82.268-.258.228-.384-.014-.625-3.044-3.019-6.08-6.047-9.111-9.084-.098-.098-.205-.192-.334-.31-.097.093-.187.167-.27.258-1.251 1.248-2.502 2.492-3.745 3.753-.22.224-.355.277-.587.015-.367-.41-.769-.794-1.168-1.167-.166-.167-.201-.265-.015-.45 1.827-1.819 3.646-3.64 5.455-5.467.18-.182.294-.167.447 0 .093.11.209.199.312.299L26.2 31.519c.747.746 1.502 1.501 2.257 2.225.202.194.23.3.005.516ZM99.635 36.048c-.093-1.118-.809-1.927-2.02-2.282-.103-.03-.225 0-.343-.153.1-.047.183-.09.266-.129 1.043-.484 1.538-1.334 1.475-2.51-.055-1.056-.622-1.785-1.693-2.149a4.15 4.15 0 0 0-.824-.195c-1.668-.198-3.336-.045-5.004-.097-.29 0-.237.18-.237.344v10.128c0 .334.105.39.402.387 1.42-.011 2.836 0 4.258-.01a4.969 4.969 0 0 0 2.067-.426c1.165-.541 1.763-1.585 1.653-2.908Zm-6.884-4.662v-1.373c0-.145 0-.29.21-.285 1.085.031 2.177-.106 3.251.118.886.185 1.276.647 1.288 1.436.015.941-.362 1.48-1.228 1.713-.899.242-1.82.102-2.73.126-.79.02-.79 0-.79-.79v-.945Zm5.273 5.56c-.227.667-.742 1.012-1.396 1.134-1.216.223-2.45.08-3.67.117-.224 0-.2-.144-.202-.286v-3.308c0-.14-.027-.297.197-.288 1.226.047 2.462-.132 3.67.117 1.207.248 1.806 1.312 1.4 2.513ZM81.845 34.741l.362-.11c1.502-.46 2.302-1.575 2.244-3.148-.055-1.476-.92-2.477-2.455-2.81a5.227 5.227 0 0 0-1.168-.132c-1.608 0-3.218.017-4.826 0-.382 0-.5.073-.5.48.018 3.108.01 6.214.01 9.323 0 1.076 0 1.061 1.087 1.066.349 0 .417-.118.414-.435-.015-1.23 0-2.46-.014-3.69 0-.313.089-.4.398-.394.85.02 1.703.025 2.553 0a.63.63 0 0 1 .63.364c.782 1.278 1.58 2.542 2.378 3.808.095.154.155.347.402.334h1.541l-3.056-4.656Zm-4.629-1.052c-.206 0-.212-.14-.212-.289v-3.356c0-.254.092-.325.334-.32.629.011 1.26 0 2.002 0 .592.013 1.304-.055 2.002.091 1.077.229 1.603.846 1.603 1.847 0 1.036-.576 1.8-1.623 1.948-1.358.196-2.736.052-4.106.079ZM121.042 29.532c0-1.096 0-1.09-1.108-1-.21.016-.265.086-.263.283.035 2.714-.061 5.426.053 8.138 0 .147.095.362-.075.424-.17.062-.225-.167-.302-.288-1.576-2.492-3.186-4.958-4.687-7.492-.501-.847-1.048-1.203-2.002-1.079-.364.045-.462.115-.46.48.015 3.17.008 6.34.008 9.509 0 .877 0 .854.856.885.402.014.488-.111.487-.5-.02-2.367-.01-4.734-.01-7.101v-1.435c.136.194.227.31.307.437 1.568 2.492 3.169 4.965 4.679 7.497.5.847 1.04 1.267 2.038 1.117.367-.055.5-.098.5-.5-.03-3.124-.021-6.25-.021-9.375Zm-1.365 8.069a1.16 1.16 0 0 1-.053-.125s.047-.022.07-.035a.698.698 0 0 1 .047.116s-.037.027-.064.044ZM53.656 33.437c-.081-2.625-1.758-4.479-4.37-4.807-1.572-.199-3.587-.097-4.726-.097-.257 0-.27.125-.27.322V39.03c0 .309.11.365.385.365h1.987c.632 0 1.263.02 1.893 0 2.09-.075 3.703-.93 4.602-2.895.436-.98.53-2.01.5-3.063Zm-2.02 2.79c-.657 1.262-1.751 1.862-3.136 1.944-.8.05-1.608 0-2.412.032-.275 0-.299-.119-.297-.334v-3.882c0-1.294.01-2.553 0-3.836 0-.314.055-.447.406-.432.959.043 1.924-.055 2.875.125 1.798.334 2.816 1.406 3.043 3.25.13 1.084.035 2.145-.479 3.132ZM132.6 39.35c-.102.023-.13.03-.167.036-1.168.212-1.988-.204-2.691-1.201-.915-1.296-2.013-2.466-3.017-3.703-.202-.249-.309-.242-.594-.082-.969.549-1.096 1.168-1.097 2.194 0 .598-.001 1.578.026 2.365 0 .31-.05.44-.403.437-1.106 0-1.106.01-1.106-1.108 0-3.076 0-6.153-.009-9.23 0-.39.049-.553.501-.535 1.001.04 1.001.012 1.001 1.001v4.137c.792-.734 1.668-1.501 2.487-2.309.864-.852 1.684-1.75 2.52-2.63a.46.46 0 0 1 .36-.187h1.597c-.656.679-1.24 1.286-1.835 1.89-.804.824-1.6 1.658-2.427 2.457-.287.275-.312.43-.039.744 1.543 1.772 3.06 3.568 4.584 5.356.11.109.192.219.309.367Z" fill="#076DA3"/><path d="M40.04 34.168c-1.89 1.877-3.775 3.761-5.654 5.652-.181.181-.295.223-.49.018a24.694 24.694 0 0 0-1.286-1.256c-.213-.195-.108-.299.04-.447a901.5 901.5 0 0 0 3.792-3.765c.075-.075.188-.118.221-.275-.08-.085-.166-.19-.268-.289-1.27-1.27-2.534-2.549-3.818-3.798-.252-.249-.267-.387 0-.626.468-.42.912-.872 1.35-1.334.166-.167.25-.167.413 0 1.89 1.89 3.79 3.78 5.696 5.671.174.174.184.27.004.45Z" fill="#2D9A44"/><path d="M10.188 38.531c-.476.414-.914.868-1.358 1.316-.167.167-.282.167-.457 0-1.89-1.907-3.786-3.805-5.687-5.694-.167-.167-.167-.252 0-.412 1.92-1.896 3.833-3.796 5.737-5.7.055-.055.118-.1.187-.167.078.073.148.135.213.2.39.39.766.797 1.168 1.168.24.218.252.342.01.58-1.22 1.19-2.406 2.41-3.627 3.598-.282.277-.333.42-.015.724 1.298 1.258 2.544 2.55 3.825 3.814.229.223.269.343.004.573ZM64.719 38.926a1586.158 1586.158 0 0 1-3.685-9.15c-.514-1.27-.377-1.27-1.755-1.247a.678.678 0 0 0-.607.36 1836.534 1836.534 0 0 1-4.122 10.126c-.105.257-.141.405.226.37.283-.026.567-.026.85 0 .274.025.387-.098.476-.334.315-.834.667-1.668.969-2.502a.447.447 0 0 1 .514-.343c.678.018 1.357 0 2.035 0 .71 0 1.42.015 2.13 0a.446.446 0 0 1 .509.353c.216.624.468 1.235.707 1.852.382.984.383.966 1.45.99.438.004.448-.116.303-.475Zm-3.394-3.866c-1.105-.009-2.21 0-3.313 0-.194 0-.359 0-.249-.276.64-1.656 1.323-3.297 1.903-5.05.563 1.744 1.26 3.36 1.885 5.004.104.273.034.323-.227.322ZM110.745 38.89c-1.282-3.18-2.56-6.36-3.837-9.538-.334-.816-.334-.816-1.216-.816-.334 0-.821-.022-.978.375-1.231 3.15-2.545 6.267-3.818 9.4-.135.333-.392.834-.333.979.068.178.935.112 1.062.098.305-.035.436-.095.539-.375.309-.834.667-1.668.974-2.502a.4.4 0 0 1 .447-.305c1.418.01 2.836.01 4.255 0a.397.397 0 0 1 .444.307c.239.648.501 1.29.749 1.935.369.947.369.947 1.376.945.532-.008.536-.008.336-.503Zm-3.385-3.837a136.193 136.193 0 0 0-3.309 0c-.344 0-.302-.122-.211-.359.624-1.626 1.303-3.229 1.869-4.972.415 1.27.885 2.435 1.346 3.601.178.454.345.913.529 1.363.098.249.11.38-.224.375v-.008Z" fill="#076DA3"/><path d="M32.817 27.022c-.46.43-.923.862-1.348 1.334-.232.25-.357.182-.559-.022-1.207-1.229-2.434-2.435-3.64-3.664-.226-.232-.353-.25-.588 0-.934.96-1.89 1.901-2.836 2.849-.087.087-.177.167-.275.26-.089-.078-.167-.14-.226-.205-.358-.357-.694-.74-1.079-1.063-.322-.268-.207-.435.025-.667A358.53 358.53 0 0 0 25.34 22.8c.545-.55 1.094-1.093 1.623-1.655.19-.203.3-.18.485 0 1.79 1.803 3.587 3.599 5.39 5.388.198.203.163.315-.02.489Z" fill="#2D9A44"/><path d="M20.58 41.943a475.471 475.471 0 0 0-4.838 4.857c-.167.167-.26.144-.412-.01-1.817-1.817-3.636-3.63-5.458-5.44-.083-.081-.213-.15-.066-.298.533-.535 1.06-1.078 1.593-1.615.043-.036.088-.07.136-.098.09.083.182.167.267.25 1.23 1.223 2.466 2.437 3.682 3.67.237.242.358.227.585 0 .933-.961 1.893-1.895 2.836-2.853.205-.208.334-.261.554-.013.343.39.724.747 1.1 1.106.16.15.208.255.02.444ZM74.19 28.536c-.166.429-.317.816-.473 1.201-1.261 3.09-2.52 6.182-3.777 9.278a.535.535 0 0 1-.594.389c-1.116-.015-1.117 0-1.533-1.016-1.273-3.12-2.546-6.238-3.82-9.355-.058-.143-.105-.292-.177-.488h1.35c.213 0 .26.121.319.273 1.092 2.858 2.302 5.673 3.302 8.576.055.157.067.333.257.48.442-1.35.944-2.645 1.457-3.942a415.342 415.342 0 0 0 1.954-5.012c.114-.299.25-.382.576-.39.163-.005.729.006 1.16.006ZM119.679 37.6a1.136 1.136 0 0 1-.053-.125.754.754 0 0 1 .068-.035.692.692 0 0 1 .047.117l-.062.044Z" fill="#076DA3"/></g></svg>