<svg width="136" height="68" fill="none" xmlns="http://www.w3.org/2000/svg"><path d="M98.153 41.952c0 .718-.14.967-.917.957-2.472-.03-2.472 0-2.472-2.47V24.23c0-1.842-.8-2.437-2.597-1.95-.35.096-.683.253-1.024.38-.811.303-1.095.832-1.089 1.742.05 5.833 0 11.666.046 17.501 0 .796-.237.98-.998.965-2.313-.043-2.313 0-2.313-2.322V24.337c0-1.976-.799-2.573-2.692-2.038-1.76.498-1.988.796-1.988 2.597 0 5.636-.024 11.27.024 16.905 0 .91-.255 1.092-1.11 1.069-2.277-.06-2.279-.018-2.279-2.243 0-6.797.016-13.591-.018-20.386 0-.824.2-1.156 1.037-1.027.298.03.598.03.896 0 .901-.037 1.874-.175 1.42 1.453 1.538-1.282 3.04-1.883 4.794-1.662.956.12 1.843.452 2.374 1.292.382.597.634.412 1.059.081 1.424-1.108 3.024-1.647 4.847-1.32 1.546.28 2.485 1.213 2.816 2.722.113.552.166 1.114.16 1.677.01 6.166-.006 12.331.024 18.495ZM63.197 22.958c-.2-2.786-2.215-4.354-4.993-3.939a5.71 5.71 0 0 0-2.635 1.115c-.301.227-.689.398-.657-.183.044-.796-.4-.753-.934-.735-.498.04-.998.04-1.496 0-.8-.103-.999.2-.999.995.038 4.642.018 9.283.018 13.932v12.339c0 2.629 0 2.607 2.682 2.555.6-.01.707-.21.7-.742a244.115 244.115 0 0 1 0-5.67c0-.28-.145-.667.145-.82.29-.153.505.225.743.374 1.728 1.08 3.557 1.381 5.403.452 1.747-.88 2.055-2.563 2.067-4.329V26.465c-.002-1.189.04-2.353-.044-3.507Zm-3.298 14.727c0 1.865-.773 2.504-2.634 2.19a5.945 5.945 0 0 1-1.14-.339c-.88-.336-1.335-.868-1.285-1.932.1-2.19.03-4.379.03-6.558 0-2.316.022-4.637-.016-6.954a1.256 1.256 0 0 1 .727-1.267 4.911 4.911 0 0 1 2.361-.689c1.308 0 1.92.535 1.945 1.843.036 1.855.014 3.71.014 5.572 0 2.701.006 5.418-.002 8.132v.002ZM76.7 24.063c-.04-3.44-1.826-5.088-5.253-5.112-4.637-.032-6.163 1.482-6.165 6.12 0 2.5 0 2.48 2.49 2.455.6 0 .83-.147.8-.774a29.49 29.49 0 0 1 0-2.786c.061-1.381.77-1.956 2.33-1.958 1.56-.002 2.28.559 2.337 1.942.048 1.158-.018 2.323.034 3.48.026.58-.2.81-.727.978-1.488.476-2.97.977-4.434 1.516-1.686.62-2.736 1.823-2.784 3.636a60.921 60.921 0 0 0 .118 6.449c.145 1.866 1.354 2.88 3.22 3.075 1.723.179 3.195-.399 4.763-1.65-.56 1.677.44 1.425 1.246 1.415.467 0 .934-.032 1.398 0 .545.047.665-.2.663-.69-.008-6.027.034-12.063-.036-18.096ZM72.476 39.36a5.712 5.712 0 0 1-2.087.629c-1.139.08-1.766-.476-1.788-1.62-.026-1.326 0-2.653 0-3.98a2.05 2.05 0 0 1 1.336-2.029c.885-.378 1.798-.688 2.695-1.044.489-.2.649-.034.639.471-.022 1.095 0 2.19 0 3.282 0 .995-.048 1.99.016 2.985.034.675-.236 1.03-.811 1.306ZM47.146 35.192c-.831-.02-1.246.123-1.107 1.06a9.18 9.18 0 0 1 .01 1.69C46 39.455 45.35 40 43.631 39.996c-1.72-.004-2.349-.563-2.371-2.101-.022-1.539.032-3.119-.024-4.675-.026-.739.262-.874.923-.862 2.095.036 4.194-.018 6.289.032.725.016.879-.223.869-.9-.04-2.388 0-4.776-.02-7.164-.028-3.662-1.73-5.358-5.39-5.376h-.6c-3.613.01-5.392 1.74-5.438 5.374-.026 1.69-.018 3.383-.014 5.069v2.91c0 2.079-.026 4.16.012 6.24.048 2.546 1.512 4.144 4.034 4.512 1.12.17 2.26.17 3.38 0 2.224-.34 3.594-1.678 3.918-3.89.074-.595.106-1.193.096-1.792.018-2.163.01-2.125-2.15-2.181Zm-5.854-11.145c.044-1.439.763-1.966 2.512-1.944 1.538.02 2.18.597 2.217 2.038.018.694 0 1.393 0 2.083 0 .76-.026 1.523 0 2.283.024.523-.173.693-.687.68a69.123 69.123 0 0 0-3.395 0c-.505.013-.705-.143-.695-.674.054-1.499.004-2.995.048-4.476v.01Z" fill="#464648"/><path d="M33.631 40.534c-.435 0-.579-.308-.782-.498-2.381-2.217-4.742-4.458-7.139-6.659-.485-.445-.583-.925-.665-1.546-.225-1.71.4-2.89 1.708-4.008 2.313-1.99 4.464-4.158 6.868-6.43 0 1.542.012 2.871 0 4.2 0 .325-.321.49-.533.691-1.418 1.352-2.818 2.723-4.276 4.03-.615.55-.767.872-.04 1.495 1.48 1.272 2.858 2.665 4.308 3.986a1.52 1.52 0 0 1 .563 1.288c-.038 1.144-.012 2.29-.012 3.451ZM109.191 34.488c-2.175 1.735-4.104 3.781-6.146 5.672-.159.147-.273.384-.655.37v-3.919c0-.397.308-.567.542-.796 1.499-1.41 2.995-2.832 4.517-4.209.464-.418.462-.659 0-1.076-1.514-1.394-2.98-2.842-4.488-4.24a1.648 1.648 0 0 1-.599-1.393c.046-1.084.012-2.17.012-3.536 2.892 2.732 5.593 5.284 8.289 7.827.247.235.241.51.277.81.228 1.827-.193 3.248-1.749 4.49Z" fill="#39C2D7"/></svg>