<svg width="136" height="68" fill="none" xmlns="http://www.w3.org/2000/svg"><path fill-rule="evenodd" clip-rule="evenodd" d="M9.023 30.214h7.493v-1.783a3.943 3.943 0 0 1 3.939-3.939h10.378V17H20.455c-6.303 0-11.432 5.127-11.432 11.43v1.784Zm0 18.786h7.493v-8.038a3.943 3.943 0 0 1 3.939-3.938h10.378V29.53H20.455c-6.303 0-11.432 5.129-11.432 11.431V49ZM42.61 22.6h1.42v8.623h2.124V22.6h2.054v-1.655h-2.084v-.969c0-.91.43-1.37 1.35-1.37.285 0 .57.021.774.06v-1.567A7.673 7.673 0 0 0 47.063 17c-2.094 0-3.034.94-3.034 2.937v1.007h-1.42V22.6ZM50.71 17c-.676 0-1.224.538-1.224 1.214 0 .665.548 1.204 1.224 1.205.686 0 1.234-.54 1.234-1.205 0-.676-.548-1.214-1.234-1.214Zm-1.057 3.925v10.298h2.115V20.925h-2.115Zm3.216 5.15c0-3.25 1.723-5.316 4.307-5.316 1.478 0 2.653.743 3.23 1.879h.038v-5.54h2.124v14.124h-2.054v-1.751h-.038c-.607 1.174-1.782 1.929-3.28 1.929-2.604 0-4.327-2.076-4.327-5.326Zm2.163 0c0 2.172 1.048 3.534 2.722 3.534 1.625 0 2.71-1.38 2.71-3.535 0-2.134-1.085-3.534-2.71-3.534-1.674 0-2.722 1.372-2.722 3.534Zm13.523-5.335c-2.937 0-4.885 2.027-4.885 5.335 0 3.318 1.938 5.345 4.885 5.345 2.946 0 4.884-2.027 4.884-5.345 0-3.308-1.948-5.335-4.884-5.335Zm0 1.743c1.654 0 2.731 1.31 2.731 3.592 0 2.29-1.067 3.602-2.731 3.602-1.655 0-2.732-1.311-2.732-3.602 0-2.28 1.077-3.592 2.732-3.592ZM81.78 20.74c2.291 0 3.896 1.282 3.964 3.113h-1.987c-.097-.93-.852-1.508-2.036-1.508-1.145 0-1.908.558-1.908 1.37 0 .636.51 1.067 1.576 1.331l1.732.402c2.075.5 2.858 1.282 2.858 2.8 0 1.879-1.752 3.171-4.277 3.171-2.437 0-4.052-1.262-4.219-3.151h2.094c.167.989.93 1.537 2.222 1.537 1.273 0 2.056-.53 2.056-1.36 0-.656-.391-1.018-1.468-1.292l-1.84-.45c-1.86-.45-2.8-1.42-2.8-2.858 0-1.843 1.625-3.105 4.033-3.105Zm7.984.186v-2.437H87.64v2.437h-1.498V22.6h1.498v5.91c0 1.987.813 2.78 2.898 2.78.47 0 .939-.038 1.174-.098v-1.674c-.138.03-.48.05-.695.05-.862 0-1.253-.4-1.253-1.292V22.6h1.958v-1.674h-1.958Zm11.915 10.298h-2.026V29.48h-.05c-.566 1.233-1.614 1.928-3.19 1.928-2.242 0-3.613-1.458-3.613-3.817v-6.667h2.115v6.255c0 1.567.743 2.408 2.203 2.408 1.526 0 2.446-1.057 2.446-2.663v-6h2.115v10.299Zm5.332-10.465c-2.585 0-4.307 2.066-4.307 5.315 0 3.25 1.722 5.326 4.326 5.326 1.498 0 2.672-.755 3.279-1.93h.039v1.752h2.055V17.098h-2.124v5.54h-.039c-.576-1.136-1.751-1.88-3.229-1.88Zm.578 8.85c-1.674 0-2.722-1.362-2.722-3.535 0-2.163 1.048-3.534 2.722-3.534 1.624 0 2.711 1.4 2.711 3.534 0 2.155-1.087 3.534-2.711 3.534Zm6.279-11.395c0-.676.548-1.214 1.224-1.214.686 0 1.234.538 1.234 1.214 0 .665-.548 1.205-1.234 1.205a1.216 1.216 0 0 1-1.224-1.205Zm2.281 2.711v10.298h-2.114V20.925h2.114Zm5.987-.185c-2.937 0-4.885 2.027-4.885 5.335 0 3.318 1.939 5.345 4.885 5.345 2.946 0 4.885-2.027 4.885-5.345 0-3.308-1.948-5.335-4.885-5.335Zm-.001 1.743c1.654 0 2.731 1.31 2.731 3.592 0 2.29-1.067 3.602-2.731 3.602-1.655 0-2.732-1.311-2.732-3.602 0-2.28 1.077-3.592 2.732-3.592ZM82.545 37.912c0-.185.15-.332.333-.332.187 0 .336.147.336.332 0 .182-.15.329-.336.329a.332.332 0 0 1-.333-.33Zm.045.74h.577v2.808h-.577V38.65Zm-3.08-.046c-.705 0-1.174.563-1.174 1.45 0 .886.47 1.452 1.18 1.452.408 0 .73-.205.894-.526h.011v.478h.56v-3.854h-.579v1.512h-.01c-.158-.31-.478-.512-.882-.512Zm.158 2.413c-.455 0-.742-.37-.742-.964 0-.589.285-.963.742-.963.444 0 .74.381.74.963 0 .588-.296.964-.74.964Zm-34.716.44h.566l.833-2.904h.026l.833 2.905h.563l1.04-3.854h-.622l-.713 3.018h-.022l-.816-3.018h-.555l-.815 3.018h-.02l-.714-3.018h-.622l1.038 3.854Zm5.103.054c.644 0 1.13-.366 1.21-.878v-.001h-.55c-.076.246-.319.411-.648.411-.462 0-.756-.323-.756-.812v-.034h1.984v-.197c0-.851-.486-1.402-1.265-1.402-.793 0-1.3.588-1.3 1.47 0 .886.5 1.443 1.325 1.443Zm.665-1.716h-1.404c.028-.424.313-.731.715-.731.403 0 .675.301.689.73Zm1.909.866c0-.491.376-.793 1.043-.83l.769-.045v-.216c0-.313-.211-.5-.564-.5-.333 0-.542.16-.593.411h-.545c.032-.506.464-.88 1.16-.88.68 0 1.116.36 1.116.923v1.936h-.552v-.463h-.014c-.163.313-.518.51-.887.51-.55 0-.933-.342-.933-.846Zm1.813-.254v-.222l-.691.043c-.344.023-.54.176-.54.417 0 .245.203.406.512.406.404 0 .719-.278.719-.644Zm1.63-1.757h-.55v2.81h.578v-1.683c0-.398.228-.646.6-.646.111 0 .213.013.259.032v-.537a1.01 1.01 0 0 0-.197-.022c-.332 0-.583.194-.676.523h-.014v-.477Zm3.476 1.983c-.08.512-.566.878-1.21.878-.825 0-1.324-.557-1.324-1.444 0-.88.506-1.469 1.3-1.469.779 0 1.265.55 1.265 1.402v.197h-1.984v.034c0 .489.293.812.755.812.33 0 .572-.165.649-.411h.55v.001Zm-1.95-.838h1.405c-.014-.43-.286-.731-.688-.731-.402 0-.687.307-.716.73Zm4.629 1.717c.644 0 1.13-.367 1.21-.879v-.001h-.55c-.077.246-.319.411-.648.411-.463 0-.756-.323-.756-.812V40.2h1.984v-.197c0-.851-.486-1.402-1.265-1.402-.793 0-1.3.588-1.3 1.47 0 .886.5 1.444 1.325 1.444Zm.665-1.717h-1.405c.03-.424.314-.731.716-.731.402 0 .675.301.689.73Zm.967-1.146h.549v.47h.014c.153-.32.451-.518.884-.518.62 0 .974.395.974 1.038v1.819h-.58v-1.706c0-.421-.198-.654-.597-.654-.406 0-.667.288-.667.724v1.637h-.577v-2.81Zm3.477 3.028h-.58c.072.487.564.838 1.227.838.801 0 1.32-.437 1.32-1.108v-2.757h-.561v.48h-.011a.982.982 0 0 0-.895-.526c-.721 0-1.18.555-1.18 1.439 0 .875.461 1.426 1.166 1.426.4 0 .733-.2.89-.505h.01v.462c0 .385-.266.64-.718.64-.33 0-.585-.154-.668-.389Zm.64-2.586c.452 0 .748.38.748.956 0 .578-.296.944-.748.946-.443 0-.73-.358-.73-.946 0-.584.287-.956.73-.956Zm1.727 1.57c0-.491.376-.793 1.043-.83l.769-.045v-.216c0-.313-.21-.5-.563-.5-.334 0-.543.16-.594.411h-.545c.032-.506.464-.88 1.16-.88.68 0 1.116.36 1.116.923v1.936h-.552v-.463h-.014c-.162.313-.518.51-.887.51-.548 0-.933-.342-.933-.846Zm1.813-.254v-.222l-.691.043c-.344.023-.54.176-.54.417 0 .245.203.406.513.406.403 0 .718-.278.718-.644Zm1.632 1.27h-.58c.074.487.565.839 1.228.839.8 0 1.319-.438 1.319-1.109v-2.757h-.56v.48h-.012a.982.982 0 0 0-.895-.526c-.721 0-1.18.555-1.18 1.439 0 .876.462 1.426 1.166 1.426.401 0 .733-.2.89-.505h.01v.463c0 .384-.266.64-.718.64-.329 0-.585-.154-.668-.39Zm.642-2.585c.452 0 .748.378.748.955 0 .578-.296.944-.748.946-.443 0-.731-.358-.731-.946 0-.584.288-.955.731-.955Zm4.248 1.541c-.08.512-.566.879-1.21.879-.825 0-1.324-.558-1.324-1.445 0-.88.506-1.469 1.3-1.469.779 0 1.265.551 1.265 1.402v.197h-1.984v.034c0 .489.293.812.756.812.329 0 .57-.165.648-.411h.55v.001Zm-1.95-.838h1.405c-.014-.43-.286-.731-.688-.731-.402 0-.687.307-.716.73Zm8.166-1.146h-.55v2.81h.577v-1.637c0-.436.262-.724.668-.724.4 0 .597.233.597.654v1.706h.58v-1.819c0-.643-.355-1.038-.975-1.038-.432 0-.73.197-.884.518h-.013v-.47Zm4.172-.665v.665h.534v.457h-.534v1.55c0 .243.107.352.341.352.06 0 .153-.006.19-.014v.457a1.572 1.572 0 0 1-.32.026c-.57 0-.79-.216-.79-.758v-1.613h-.41v-.457h.41v-.665h.579Zm1.544-.379h-.57v3.854h.577v-1.623c0-.444.261-.737.688-.737.406 0 .614.248.614.662v1.698h.58v-1.81c0-.635-.37-1.047-.986-1.047-.427 0-.735.189-.89.518h-.013v-1.515Zm4.799 3.028c-.08.512-.566.879-1.21.879-.825 0-1.325-.558-1.325-1.445 0-.88.507-1.469 1.3-1.469.78 0 1.265.551 1.265 1.402v.197h-1.984v.034c0 .489.293.812.756.812.33 0 .571-.165.648-.411h.55v.001Zm-1.95-.838h1.405c-.014-.43-.287-.731-.689-.731-.402 0-.687.307-.716.73Zm4.357.036c-.668.037-1.043.339-1.043.83 0 .504.385.846.933.846.369 0 .724-.197.887-.51h.013v.463h.553v-1.936c0-.563-.436-.924-1.117-.924-.695 0-1.128.375-1.16.881h.546c.05-.252.26-.411.593-.411.353 0 .563.187.563.5v.216l-.768.045Zm.77.354v.222c0 .366-.316.644-.719.644-.31 0-.512-.161-.512-.406 0-.241.195-.394.54-.417l.69-.043Zm1.08-1.536h.55v.47h.014c.153-.32.451-.518.884-.518.619 0 .974.395.974 1.038v1.819h-.579v-1.706c0-.421-.199-.654-.598-.654-.406 0-.668.288-.668.724v1.637h-.576v-2.81Zm3.851 1.182c-.667.037-1.043.339-1.043.83 0 .504.385.846.933.846.369 0 .724-.197.887-.51h.014v.463h.552v-1.936c0-.563-.435-.924-1.117-.924-.695 0-1.127.375-1.159.881h.545c.051-.252.26-.411.594-.411.352 0 .563.187.563.5v.216l-.769.045Zm.77.354v.222c0 .366-.315.644-.719.644-.309 0-.512-.161-.512-.406 0-.241.196-.394.54-.417l.691-.043Zm1.826-2.2v.664h.534v.457h-.534v1.55c0 .243.107.352.341.352.059 0 .153-.006.19-.014v.457a1.576 1.576 0 0 1-.321.026c-.568 0-.79-.216-.79-.758v-1.613h-.409v-.457h.409v-.665h.58Zm2.092.613c-.801 0-1.333.552-1.333 1.456 0 .905.529 1.458 1.333 1.458.804 0 1.333-.554 1.333-1.459 0-.903-.532-1.455-1.333-1.455Zm0 .475c.452 0 .745.358.745.98 0 .626-.292.983-.745.983-.452 0-.745-.357-.745-.982 0-.623.293-.98.745-.98Zm1.726-.424h.551v.473h.013a.831.831 0 0 1 .799-.52c.389 0 .673.2.785.55h.013c.145-.342.475-.55.876-.55.555 0 .918.368.918.926v1.93h-.579v-1.791c0-.364-.196-.572-.537-.572-.342 0-.58.254-.58.609v1.754h-.566v-1.834c0-.323-.205-.529-.531-.529-.342 0-.585.268-.585.628v1.736h-.577v-2.81Zm4.495 3.375v.467c.043.008.19.014.237.015.585 0 .859-.219 1.1-.9l1.055-2.956h-.609l-.713 2.285h-.008l-.713-2.285h-.625l1.014 2.81s-.008.031-.019.065c-.014.048-.032.106-.032.11-.088.288-.23.4-.499.4-.049 0-.145 0-.188-.011Zm-69.831 4.511c0-.902.531-1.455 1.333-1.455.8 0 1.332.552 1.332 1.455 0 .905-.528 1.458-1.332 1.458s-1.333-.552-1.333-1.458Zm2.077 0c0-.622-.293-.98-.744-.98-.452 0-.745.358-.745.98 0 .625.293.983.745.983.454 0 .744-.358.744-.983Zm.76-.948h.388v2.352h.58v-2.353h.56v-.452h-.569v-.264c0-.25.119-.375.37-.375.076 0 .153.006.21.017v-.427a2.224 2.224 0 0 0-.324-.026c-.571 0-.827.256-.827.801v.276h-.387v.451Zm5.39 2.353h-.553v-.475h-.014c-.154.336-.44.526-.87.526-.61 0-.985-.398-.985-1.04v-1.82h.576v1.706c0 .427.203.657.6.657.418 0 .668-.288.668-.726v-1.637h.577v2.81Zm2.644-2.01c-.018-.5-.456-.85-1.08-.85-.658 0-1.101.344-1.104.844 0 .392.258.657.764.78l.503.122c.293.074.4.173.4.352 0 .227-.213.372-.56.372-.352 0-.56-.149-.606-.419h-.57c.044.517.485.86 1.15.86.688 0 1.166-.352 1.166-.864 0-.414-.213-.628-.78-.764l-.471-.109c-.29-.073-.43-.19-.43-.363 0-.22.208-.373.52-.373.323 0 .53.158.555.411h.543Zm2.867 1.185c-.08.512-.566.878-1.21.878-.825 0-1.325-.557-1.325-1.444 0-.881.507-1.469 1.3-1.469.779 0 1.265.55 1.265 1.401v.197h-1.984v.035c0 .489.293.812.756.812.329 0 .571-.165.648-.412h.55v.002Zm-1.95-.839h1.404c-.013-.43-.286-.73-.688-.73-.402 0-.687.306-.716.73Zm2.925-1.145h-.55v2.81h.577V46.26c0-.398.229-.646.6-.646.112 0 .214.013.26.032v-.537c-.043-.008-.115-.022-.197-.022-.332 0-.583.194-.676.523h-.014v-.477Zm2.217-.74c0-.185.15-.332.333-.332.187 0 .336.147.336.332 0 .181-.15.329-.336.329a.33.33 0 0 1-.333-.33Zm.045.74h.577v2.808h-.577v-2.809Zm1.663 0h-.549v2.81h.577v-1.638c0-.436.262-.724.668-.724.399 0 .597.233.597.654v1.706h.58v-1.819c0-.643-.355-1.038-.975-1.038-.432 0-.73.197-.884.518h-.014v-.47Zm3.118-.666v.665h.534v.457h-.534v1.55c0 .243.107.352.341.352.06 0 .153-.006.19-.014v.457a1.57 1.57 0 0 1-.32.026c-.569 0-.79-.216-.79-.758v-1.613h-.41v-.457h.41v-.665h.579Zm2.084 3.528c.644 0 1.13-.366 1.21-.878v-.002h-.548c-.077.247-.32.412-.648.412-.463 0-.756-.323-.756-.812v-.035h1.982v-.196c0-.851-.486-1.402-1.265-1.402-.793 0-1.3.588-1.3 1.47 0 .886.5 1.443 1.325 1.443Zm.665-1.716h-1.404c.028-.425.313-.732.715-.732.403 0 .675.302.689.732Zm.97-1.147h.55v.478h.014c.094-.329.344-.523.676-.523.083 0 .154.014.197.022v.537a.811.811 0 0 0-.259-.032c-.372 0-.6.248-.6.646v1.683h-.577v-2.81Zm1.519.457h.387v2.352h.58v-2.353h.56v-.452h-.569v-.264c0-.25.119-.375.37-.375.076 0 .153.006.21.017v-.427a2.237 2.237 0 0 0-.324-.026c-.571 0-.827.256-.827.801v.276h-.387v.451Zm1.66 1.555c0-.491.376-.793 1.044-.83l.768-.045v-.217c0-.312-.21-.5-.563-.5-.333 0-.543.16-.594.412h-.545c.032-.506.464-.88 1.16-.88.68 0 1.116.36 1.116.923v1.936h-.552v-.463h-.014c-.162.313-.518.51-.886.51-.55 0-.934-.342-.934-.846Zm1.813-.255v-.221l-.69.042c-.345.024-.54.177-.54.418 0 .245.202.406.512.406.403 0 .718-.278.718-.645Zm2.28-1.326c.376 0 .6.238.66.536h.549c-.05-.553-.49-1.017-1.215-1.017-.798 0-1.321.563-1.321 1.455 0 .908.523 1.458 1.327 1.458.674 0 1.152-.406 1.214-1.003h-.555c-.066.325-.298.52-.654.52-.448 0-.744-.358-.744-.975 0-.603.293-.974.739-.974Zm3.977 1.554c-.08.512-.566.878-1.21.878-.825 0-1.325-.557-1.325-1.444 0-.881.507-1.469 1.3-1.469.78 0 1.265.55 1.265 1.401v.197h-1.984v.035c0 .489.294.812.756.812.33 0 .572-.165.649-.412h.549v.002Zm-1.95-.839h1.405c-.014-.43-.287-.73-.689-.73-.402 0-.685.306-.715.73Zm4.36.036c-.669.037-1.044.339-1.044.83 0 .504.384.845.933.845.369 0 .724-.197.887-.509h.013v.463h.552v-1.936c0-.563-.435-.924-1.116-.924-.695 0-1.128.375-1.16.881h.546c.05-.252.26-.411.593-.411.353 0 .563.187.563.5v.216l-.768.045Zm.767.354v.221c0 .367-.313.645-.718.645-.31 0-.513-.161-.513-.406 0-.241.196-.394.54-.418l.691-.042Zm1.079-1.536h.549v.47h.014c.152-.321.451-.518.883-.518.62 0 .975.395.975 1.038v1.819h-.58v-1.706c0-.421-.198-.654-.597-.654-.406 0-.668.288-.668.724v1.637h-.576v-2.81Zm3.971-.044c-.705 0-1.174.563-1.174 1.45 0 .886.47 1.452 1.18 1.452.409 0 .73-.205.895-.526h.01v.478h.561v-3.854h-.58V45.6h-.01c-.157-.31-.478-.512-.882-.512Zm.159 2.413c-.456 0-.742-.37-.742-.964 0-.589.285-.963.742-.963.443 0 .74.381.74.963 0 .588-.297.964-.74.964Zm2.777-.964c0-.886.47-1.45 1.174-1.45.403 0 .724.203.881.513h.011v-1.512h.58v3.854h-.56v-.478h-.012c-.165.32-.486.526-.894.526-.71 0-1.18-.566-1.18-1.453Zm.59 0c0 .594.287.964.742.964.444 0 .74-.376.74-.964 0-.582-.296-.963-.74-.963-.457 0-.742.374-.742.963Zm2.899-2.476a.33.33 0 1 0 0 .66.332.332 0 0 0 .336-.328.332.332 0 0 0-.336-.332Zm.289 1.071h-.577v2.809h.577v-2.809Zm.512 3.028h.58c.082.236.338.39.667.39.451 0 .719-.256.719-.64v-.463h-.011c-.157.304-.49.505-.89.505-.705 0-1.166-.55-1.166-1.426 0-.884.459-1.439 1.18-1.439.398 0 .724.201.895.526h.01v-.48h.561v2.757c0 .67-.518 1.108-1.319 1.108-.662 0-1.154-.352-1.226-.838Zm1.968-1.631c0-.577-.296-.956-.747-.956-.444 0-.731.372-.731.956 0 .587.287.945.73.945.451 0 .748-.366.748-.945Zm1.397-2.468a.33.33 0 1 0 0 .66.332.332 0 0 0 .336-.328.332.332 0 0 0-.336-.332Zm.29 1.071h-.578v2.809h.577v-2.809Zm1.283-.665v.665h.535v.457h-.535v1.55c0 .243.108.352.342.352.059 0 .153-.006.19-.014v.457a1.574 1.574 0 0 1-.321.026c-.569 0-.79-.216-.79-.758v-1.613h-.409v-.457h.409v-.665h.579Zm1.841 1.847c-.668.037-1.044.339-1.044.83 0 .504.384.845.933.845.369 0 .725-.197.887-.51h.014v.464h.552v-1.936c0-.563-.435-.924-1.117-.924-.695 0-1.127.374-1.159.881h.545c.051-.252.261-.412.594-.412.352 0 .563.188.563.5v.216l-.768.046Zm.769.354v.221c0 .366-.315.645-.718.645-.31 0-.513-.161-.513-.407 0-.24.196-.393.54-.417l.691-.042Zm1.097-2.579h.577v3.854h-.577v-3.854Zm2.752 3.375h.011c.173.326.49.526.903.525.713 0 1.172-.56 1.172-1.453 0-.89-.462-1.45-1.169-1.45-.398 0-.719.197-.887.523h-.014v-1.52h-.576v3.853h.56v-.478Zm.758.037c-.437 0-.744-.378-.744-.964 0-.58.307-.963.744-.963.453 0 .734.373.734.963 0 .595-.279.964-.734.964Zm1.722-2.368h.55v.477h.013c.094-.329.345-.523.676-.523.083 0 .155.014.197.022v.537a.809.809 0 0 0-.259-.032c-.371 0-.6.248-.6.646v1.683h-.577v-2.81Zm2.612 1.18c-.667.038-1.043.34-1.043.831 0 .504.385.845.933.845.369 0 .725-.197.887-.509h.014v.463h.552v-1.936c0-.563-.435-.924-1.117-.924-.695 0-1.127.375-1.159.881h.545c.051-.252.26-.411.594-.411.352 0 .563.187.563.5v.216l-.769.045Zm.77.355v.221c0 .367-.315.645-.719.645-.309 0-.512-.161-.512-.406 0-.241.196-.394.54-.418l.691-.042Zm1.079-1.536h.549v.47h.014c.153-.32.452-.518.884-.518.619 0 .975.395.975 1.038v1.819h-.58v-1.706c0-.421-.198-.654-.597-.654-.407 0-.668.288-.668.724v1.637h-.577v-2.81Zm3.968-.044c-.705 0-1.175.563-1.175 1.45 0 .886.47 1.452 1.18 1.452.409 0 .73-.205.895-.526h.011v.478h.561v-3.854h-.58V45.6h-.011c-.157-.31-.478-.512-.881-.512Zm.157 2.413c-.456 0-.742-.37-.742-.964 0-.589.286-.963.742-.963.443 0 .739.381.739.963 0 .588-.296.964-.739.964Zm1.825-3.108c0-.185.15-.332.333-.332.187 0 .336.147.336.332 0 .181-.15.329-.336.329a.332.332 0 0 1-.333-.33Zm.045.74h.577v2.808h-.577v-2.809Zm1.664 0h-.55v2.81h.577v-1.638c0-.436.262-.724.668-.724.399 0 .597.233.597.654v1.706h.58v-1.819c0-.643-.355-1.038-.975-1.038-.432 0-.731.197-.884.518h-.013v-.47Zm2.348 3.027h.58c.082.236.339.39.668.39.451 0 .718-.256.718-.64v-.463h-.011c-.157.304-.488.505-.889.505-.705 0-1.166-.55-1.166-1.426 0-.884.458-1.439 1.18-1.439.398 0 .724.201.895.526h.009v-.48h.561v2.757c0 .67-.518 1.108-1.319 1.108-.663 0-1.154-.352-1.226-.838Zm1.968-1.631c0-.577-.296-.956-.748-.956-.443 0-.731.372-.731.956 0 .587.288.945.731.945.452 0 .748-.366.748-.945Z" fill="#000"/></svg>