<svg xmlns="http://www.w3.org/2000/svg" width="21" height="21" fill="none"><path fill="#fff" d="M10.5.646c.38 0 .688.308.688.687v.917a.687.687 0 1 1-1.376 0v-.917c0-.38.308-.687.688-.687ZM10.5 5.23a5.27 5.27 0 1 0 0 10.541 5.27 5.27 0 0 0 0-10.542ZM4.504 3.532a.688.688 0 1 0-.972.973l.648.648a.688.688 0 0 0 .973-.973l-.649-.648ZM20.354 10.5c0 .38-.308.688-.687.688h-.917a.687.687 0 1 1 0-1.375h.917c.38 0 .687.307.687.687ZM17.468 4.505a.687.687 0 1 0-.972-.973l-.648.648a.687.687 0 1 0 .972.973l.648-.648ZM10.5 18.063c.38 0 .688.308.688.687v.917a.687.687 0 1 1-1.376 0v-.917c0-.38.308-.687.688-.687ZM16.82 15.848a.688.688 0 0 0-.973.972l.649.648a.688.688 0 1 0 .972-.972l-.648-.648ZM2.938 10.5c0 .38-.308.688-.688.688h-.917a.687.687 0 1 1 0-1.375h.917c.38 0 .688.307.688.687ZM5.152 16.82a.688.688 0 0 0-.972-.972l-.648.648a.688.688 0 0 0 .972.972l.648-.648Z"/></svg>