<svg width="136" height="68" fill="none" xmlns="http://www.w3.org/2000/svg"><mask id="a" style="mask-type:luminance" maskUnits="userSpaceOnUse" x="21" y="22" width="94" height="24"><path d="M114.813 22.178H21v23.644h93.813V22.178Z" fill="#fff"/></mask><g mask="url(#a)"><path d="M90.281 43.096c-.856.6-1.818.471-2.7.198-.84-.26-1.033-1.092-1.111-1.888-.044-.446-.01-.9-.022-1.35-.089-3.737-.18-7.474-.272-11.211 0-.097-.02-.194-.035-.339-.269.083-.312.298-.381.462-.77 1.825-1.753 3.543-2.652 5.302a3.04 3.04 0 0 0-.126.338c-.466.885-.946 1.761-1.392 2.655-.393.788-.946 1.357-1.874 1.331-.91-.026-1.468-.571-1.877-1.359-1.152-2.219-2.48-4.345-3.554-6.608-.224-.473-.455-.944-.69-1.433-.294.137-.187.368-.191.544-.088 3.92-.173 7.842-.255 11.762-.02.917-.597 1.724-1.353 1.912-.909.226-1.704-.105-2.149-.885-.213-.372-.248-.79-.221-1.187.115-1.858.024-3.719.122-5.575.16-3.04.191-6.082.248-9.125.017-.834.048-1.675.18-2.497.143-.904.79-1.398 1.708-1.443.631-.03 1.266-.082 1.896-.05.75.038 1.435.226 1.823.997 1.292 2.563 2.605 5.119 3.913 7.676.222.435.454.865.684 1.295.145.27.244.318.442 0 .73-1.157 1.223-2.432 1.864-3.636.6-1.12 1.122-2.29 1.678-3.44.339-.647.674-1.295 1.017-1.938.319-.599.848-.868 1.5-.893.633-.024 1.268-.015 1.901-.013 1.255 0 1.989.676 2.054 1.93.07 1.322.1 2.653.148 3.98l.468 12.732c.027.719-.183 1.33-.791 1.756Z" fill="url(#b)"/><path d="M114.359 28.956c-.57-2.206-1.847-3.953-3.813-5.183-1.157-.728-2.437-1.106-3.742-1.434l-.363-.023c-.183-.005-.367 0-.549-.015-1.47-.16-2.96-.198-4.395.107-3.353.713-5.852 2.595-7.206 5.806-.775 1.84-.934 3.784-.739 5.768.273 2.782 1.22 5.257 3.177 7.306.656.685 1.488 1.117 2.241 1.659a.249.249 0 0 1 .1.03c1.72.778 3.525 1.064 5.406.992 3.892-.151 6.808-1.937 8.685-5.31 1.696-3.05 2.068-6.334 1.198-9.703Zm-4.546 4.73c-.115 1.483-.408 2.904-1.045 4.245-.583 1.227-1.405 2.24-2.687 2.81-.357.159-.714.301-1.117.257-1.272.165-2.489.066-3.561-.739a.402.402 0 0 1-.373-.236l-.121-.127c-.544-.427-1.05-.886-1.223-1.598a.084.084 0 0 1-.03-.076c-.588-.667-.744-1.52-.932-2.337-.485-2.088-.55-4.203.008-6.281.363-1.353.876-2.67 2.165-3.472v.008c.044-.04.089-.076.135-.114.482-.6 1.203-.76 1.884-.886.85-.157 1.736-.269 2.575.13.505 0 .91.259 1.311.514.739.357 1.28.957 1.694 1.619 1.206 1.915 1.491 4.043 1.318 6.28l-.001.003Z" fill="url(#c)"/><path d="M65.663 35.958c-.013 1.59-.39 3.104-1.224 4.487-1.283 2.125-3.264 3.17-5.628 3.42-1.758.186-3.56.272-5.305-.194-2.67-.714-4.524-2.332-5.341-5.028-.274-.87-.447-1.77-.515-2.68l-.011-11.415c0-.082 0-.165.004-.248l.008-.121c.683-1.727 3.103-2.186 4.361-.835.355.38.398.836.398 1.307.007 3.518 0 7.036.013 10.552 0 1.153.18 2.263.848 3.254.533.791 1.292 1.258 2.173 1.481 1.476.376 2.883.192 4.074-.848 1.004-.875 1.39-2.05 1.399-3.334.025-3.68.014-7.362.011-11.043 0-.67.2-1.24.724-1.677.834-.693 3.07-.5 3.737.345.237.298.287.676.287 1.043.004 3.845.018 7.69-.013 11.534Z" fill="url(#d)"/><path d="M43.682 26.369c-.005 5.113-.005 10.226 0 15.339 0 .946-.685 1.613-1.627 1.616-.49 0-.98-.003-1.472-.01-1.083-.015-1.673-.592-1.673-1.662 0-2.291-.015-4.582.024-6.872.01-.615-.158-.81-.785-.812-2.535 0-5.07-.047-7.604-.107-.48-.011-.647.106-.625.606.122 2.785.472 5.525 1.53 8.131.122.299.315.568.475.851-.16.399-.43.264-.706.156-1.385-.544-2.247-1.634-2.985-2.852-.944-1.548-1.47-3.255-1.819-5.02a17.687 17.687 0 0 1-.339-4.613c.073-1.102.235-2.01.379-3.073.02-.15.051-.297.093-.443.018-.062.044-.123.063-.185.118-.417.263-.827.436-1.225.095-.266.215-.522.36-.765a1.79 1.79 0 0 1 .265-.363c.166-.175.324-.357.485-.538.235-.263.506-.491.805-.678.43-.27.88-.496 1.405-.579.546-.083.661.008.48.522-.686 1.995-.855 4.063-.93 6.15-.021.604.19.762.771.756 2.516-.025 5.031-.013 7.547.006.381 0 .656-.05.656-.496 0-1.776.28-3.548.04-5.325-.041-.298-.104-.596-.37-.739-.504-.269-.237-.506 0-.737 1.312-1.27 3.462-.925 4.463.704.429.675.657 1.458.658 2.257Z" fill="url(#e)"/><path d="M23.023 39.11c.21.959.806 1.694 1.33 2.48.712 1.066 1.218 1.901 2.458 2.43.054.028.422.247.476.276l.194.083c.127.031.248.088.354.165.088.062.174.097.242-.012.143-.228-.115-.313-.304-.372a.704.704 0 0 1-.232-.138c-.763-.737-1.554-1.45-2.118-2.363-.383-.62-.732-1.262-1.095-1.895v-.005l-.725-1.847c-.083-.268-.128-.43-.248-.75-.007-.042-.014-.064-.021-.104a18.675 18.675 0 0 0-.438-2.207l-.05-.371c0-.817 0-1.633.006-2.45a5.996 5.996 0 0 1 1.08-3.389 5.93 5.93 0 0 1 1.35-1.451c0 .18.026.269-.004.33-.487 1.013-.612 2.104-.678 3.203-.178 3.004.355 5.894 1.47 8.679.617 1.538 1.374 2.996 2.728 4.05a7.72 7.72 0 0 0 2.637 1.35c.053.26-.189.388-.264.59-1.707.718-3.395.468-5.042-.177-2.585-1.011-4.161-2.984-5-5.563-.215-.661-.14-1.463.047-2.091a2.38 2.38 0 0 1 .598-1.017c.126-.125.255-.223.34-.215.076.453.213.894.407 1.311.036.081.067.164.095.248.004.01.008.02.013.028.034.155.083.306.145.452.024.057.073.097.082.157.118.38.166.579.166.579" fill="url(#f)"/></g><defs><linearGradient id="b" x1="93.203" y1="39.956" x2="70.596" y2="27.803" gradientUnits="userSpaceOnUse"><stop offset=".33" stop-color="#9C8837"/><stop offset=".56" stop-color="#F7E59E"/><stop offset=".6" stop-color="#F0DE96"/><stop offset=".67" stop-color="#DECB80"/><stop offset=".75" stop-color="#C1AD5D"/><stop offset=".79" stop-color="#B39F4D"/></linearGradient><linearGradient id="c" x1="120.251" y1="42.252" x2="92.229" y2="25.566" gradientUnits="userSpaceOnUse"><stop offset=".33" stop-color="#9C8837"/><stop offset=".56" stop-color="#F7E59E"/><stop offset=".6" stop-color="#F0DE96"/><stop offset=".67" stop-color="#DECB80"/><stop offset=".75" stop-color="#C1AD5D"/><stop offset=".79" stop-color="#B39F4D"/></linearGradient><linearGradient id="d" x1="67.879" y1="38.822" x2="45.206" y2="24.496" gradientUnits="userSpaceOnUse"><stop offset=".33" stop-color="#9C8837"/><stop offset=".56" stop-color="#F7E59E"/><stop offset=".6" stop-color="#F0DE96"/><stop offset=".67" stop-color="#DECB80"/><stop offset=".75" stop-color="#C1AD5D"/><stop offset=".79" stop-color="#B39F4D"/></linearGradient><linearGradient id="e" x1="39.335" y1="35.487" x2="24.924" y2="24.51" gradientUnits="userSpaceOnUse"><stop offset=".33" stop-color="#9C8837"/><stop offset=".56" stop-color="#F7E59E"/><stop offset=".6" stop-color="#F0DE96"/><stop offset=".67" stop-color="#DECB80"/><stop offset=".75" stop-color="#C1AD5D"/><stop offset=".79" stop-color="#B39F4D"/></linearGradient><linearGradient id="f" x1="33.749" y1="42.582" x2="19.234" y2="31.703" gradientUnits="userSpaceOnUse"><stop offset=".33" stop-color="#9C8837"/><stop offset=".56" stop-color="#F7E59E"/><stop offset=".6" stop-color="#F0DE96"/><stop offset=".67" stop-color="#DECB80"/><stop offset=".75" stop-color="#C1AD5D"/><stop offset=".79" stop-color="#B39F4D"/></linearGradient></defs></svg>