<svg width="136" height="68" fill="none" xmlns="http://www.w3.org/2000/svg"><mask id="a" style="mask-type:luminance" maskUnits="userSpaceOnUse" x="20" y="25" width="96" height="18"><path d="M116 25H20v18h96V25Z" fill="#fff"/></mask><g mask="url(#a)"><path d="M99.243 42.726c-.567 0-1.135-.008-1.703.004-.175.004-.249-.053-.301-.218-.345-1.08-.706-2.158-1.05-3.24-.052-.162-.124-.205-.29-.204-2.156.006-4.313.006-6.47 0-.182 0-.25.064-.3.228-.322 1.063-.663 2.121-.98 3.186-.06.201-.15.252-.35.25-1.12-.01-2.239-.004-3.357-.004-.272 0-.273 0-.183-.253l4.732-13.263 1.047-2.934c.306-.857.894-1.271 1.8-1.272.892 0 1.784.006 2.676-.005.178-.002.247.059.306.22 2.093 5.75 4.19 11.5 6.29 17.247.093.257.093.257-.189.257h-1.678ZM92.672 28.62c-.035.059-.04.065-.043.072l-2.386 7.2c-.073.22.076.175.188.175 1.484 0 2.967-.003 4.45.004.2 0 .247-.031.178-.238-.627-1.878-1.243-3.76-1.864-5.641-.167-.511-.339-1.019-.523-1.572Z" fill="#EC1D25"/><path d="M74.128 30.777c.278-.41.542-.75.875-1.032.984-.831 2.147-1.08 3.399-1.035 2.21.082 4.626 1.967 4.933 4.645.059.472.09.947.096 1.422 0 2.567.001 5.133.005 7.7 0 .19-.03.257-.243.254a120.82 120.82 0 0 0-3.016 0c-.187.002-.222-.05-.222-.226.007-2.3.012-4.6 0-6.9-.004-.766-.062-1.53-.432-2.231-.456-.866-1.109-1.471-2.133-1.544-1.566-.11-2.632.655-3.06 2.176-.135.482-.204.98-.203 1.48 0 2.333-.002 4.665.006 6.997 0 .2-.045.25-.249.249-1.03-.012-2.06-.01-3.089-.002-.158 0-.2-.04-.2-.198.005-5.77.005-11.54 0-17.31 0-.165.038-.223.214-.219.486.012.972.004 1.459.004 1.112 0 1.855.735 1.858 1.849.004 1.21 0 2.42 0 3.631l.002.29ZM51.062 36.808c-1.411 0-2.822.004-4.234-.004-.207 0-.255.047-.228.256.049.392.09.785.225 1.16.476 1.32 1.447 1.794 2.65 1.765a3.093 3.093 0 0 0 1.398-.355c.214-.114.403-.26.531-.45.337-.5.81-.692 1.388-.692.803 0 1.606.004 2.41-.004.183-.002.17.073.131.2-.672 2.251-2.171 3.63-4.465 4.13-1.252.271-2.517.258-3.753-.106-1.653-.488-2.853-1.546-3.491-3.123-1.014-2.503-1.041-5.063.005-7.558.814-1.943 2.383-2.997 4.48-3.254 1.244-.152 2.477-.07 3.664.361 1.874.682 2.945 2.074 3.47 3.938.323 1.148.363 2.322.343 3.503-.003.187-.078.239-.267.237-1.418-.008-2.839-.004-4.257-.004Zm-1.83-2.325h2.092c.539 0 .546 0 .462-.524-.091-.564-.257-1.102-.665-1.528-.837-.874-2.484-.982-3.485-.235-.696.518-.954 1.25-1.038 2.073-.02.184.033.217.2.215.811-.005 1.622-.001 2.433-.001Z" fill="#010101"/><path d="M36.674 35.437c0-2.332-.004-4.665.005-6.997 0-.225-.04-.297-.285-.295-1.573.013-3.146.004-4.72.01-.179 0-.248-.029-.246-.231.013-.904.01-1.808.002-2.712 0-.173.05-.212.218-.212 4.054.005 8.109.006 12.164.005.992 0 1.8.82 1.816 1.833.005.354-.012.71.005 1.065.01.199-.043.255-.248.254-1.387-.01-2.774-.005-4.16-.005-.235 0-.47.006-.706-.003-.13-.005-.175.043-.163.167a17581.823 17581.823 0 0 0 .005 14.14c0 .225-.062.274-.278.271a148.835 148.835 0 0 0-3.163 0c-.196.003-.253-.036-.253-.244.01-2.349.007-4.697.007-7.046ZM67.302 33.192c-.502 0-1.006-.01-1.508.005-.21.006-.33-.047-.43-.245-.806-1.593-3.21-1.552-4.143-.514-.46.51-.68 1.13-.788 1.788-.212 1.285-.231 2.573.169 3.83.634 1.993 2.5 2.235 3.918 1.675.326-.129.584-.343.799-.61.354-.44.805-.647 1.374-.637a88.68 88.68 0 0 0 2.335 0c.185-.002.216.043.163.219-.73 2.38-2.349 3.752-4.793 4.168-1.163.198-2.327.17-3.463-.178-1.803-.551-3.012-1.762-3.62-3.5-.773-2.212-.794-4.468-.026-6.69.815-2.357 2.817-3.738 5.323-3.786 1.078-.02 2.133.075 3.148.463 1.646.63 2.635 1.861 3.207 3.473.19.538.184.54-.375.54l-1.29-.001Z" fill="#010101"/><path d="M110.294 32.794c0-2.51.003-5.019-.005-7.528 0-.214.052-.273.267-.265.51.016 1.021.005 1.532.005 1.008 0 1.782.764 1.79 1.77.006.678.013 1.357-.005 2.034-.006.233.073.274.284.27.542-.015 1.084 0 1.629-.009.157-.002.209.038.205.2-.01.51-.033 1.02.002 1.526.074 1.041-.713 1.893-1.819 1.873-.249-.004-.303.063-.301.304.011 1.904.006 3.808.006 5.713 0 .663.278.948.953.979.162.007.326.002.484.032.433.083.645.303.659.741.021.718.006 1.436.015 2.154 0 .137-.075.133-.168.139-1.044.066-2.088.032-3.131-.036-.274-.018-.551-.025-.821-.088-.886-.206-1.419-.84-1.536-1.829a5.838 5.838 0 0 1-.042-.724c.002-2.42.003-4.84.002-7.261ZM105.265 38.855c0 1.219-.003 2.437.004 3.656 0 .164-.034.22-.211.218a207.775 207.775 0 0 0-3.236 0c-.155 0-.203-.035-.203-.197.009-2.324-.014-4.65.02-6.973.023-1.574.424-3.047 1.45-4.296.838-1.022 1.949-1.594 3.211-1.92.964-.25 1.944-.34 2.937-.326.123.001.168.03.167.161a465.264 465.264 0 0 0 0 3.342c0 .17-.08.172-.207.175-.559.01-1.121-.047-1.677.037-1.449.221-2.175 1.03-2.248 2.492-.003.049-.007.097-.007.147v3.484ZM25.731 36.177c0-2.09.003-4.18-.005-6.271 0-.212.05-.266.264-.263 1.103.012 2.206.008 3.309.003.15 0 .205.027.205.194-.005 4.23-.004 8.458 0 12.687 0 .154-.036.203-.198.202-1.119-.008-2.238-.01-3.357 0-.193.002-.222-.062-.222-.234.006-2.105.007-4.21.004-6.318ZM23.815 31.558c0 .557-.006 1.114.003 1.67.002.158-.024.226-.205.225-1.135-.01-2.27-.007-3.405 0-.153 0-.21-.034-.208-.199.009-.733-.005-1.468.006-2.202.014-.932.481-1.39 1.42-1.402.729-.008 1.458.005 2.188-.006.181-.002.208.063.205.221-.01.564-.004 1.129-.004 1.693ZM21.91 42.726c-.568 0-1.136-.005-1.703.003-.15.001-.208-.027-.208-.195.008-1.105.008-2.21 0-3.316 0-.163.052-.2.207-.2 1.135.005 2.27.005 3.406 0 .154 0 .208.034.207.198a261.92 261.92 0 0 0 0 3.317c0 .167-.059.196-.208.194-.567-.006-1.134-.001-1.702-.001ZM27.597 28.154H25.92c-.096 0-.197.023-.195-.135.008-.604-.02-1.21.018-1.813.051-.776.492-1.179 1.277-1.197.768-.016 1.538 0 2.308-.005.127 0 .167.039.166.165-.004.944-.005 1.887 0 2.83 0 .163-.088.157-.198.156l-1.7-.001Z" fill="#EC1D25"/></g></svg>