<svg width="136" height="68" fill="none" xmlns="http://www.w3.org/2000/svg"><mask id="a" style="mask-type:luminance" maskUnits="userSpaceOnUse" x="22" y="18" width="94" height="32"><path d="M115.023 18H22v32h93.023V18Z" fill="#fff"/></mask><g mask="url(#a)" fill="#2A43D4"><path d="M22 45.375c.46-.036.93-.045 1.377-.112.984-.145 1.527-.744 1.652-1.713.074-.548.115-1.1.123-1.652 0-5.05.024-10.097-.015-15.147 0-.878.22-1.224 1.133-1.136.8.07 1.606.07 2.407 0 .765-.06.93.255.93.952-.024 3.88-.01 7.757-.013 11.636 0 1.724.023 3.449-.018 5.172-.099 4.173-2.195 6.249-6.382 6.374-.4.01-.798.042-1.198.067L22 45.375ZM91.023 33.589c-.422-2.121-1.514-3.466-3.48-3.978-1.818-.47-3.368.078-4.598 1.455-1.53 1.712-1.438 4.38.164 6.056a4.5 4.5 0 0 0 6.054.467c.502-.41.98-.85 1.427-1.32 2.876-2.883 5.72-5.804 8.634-8.65 2.532-2.477 5.621-3.2 8.983-2.246 3.362.954 5.443 3.272 6.299 6.65.16.626.245 1.269.253 1.915.028 2.557 0 5.115.024 7.673 0 .605-.186.824-.792.804a41.487 41.487 0 0 0-2.968 0c-.615.02-.794-.224-.787-.815.025-2.434.013-4.869 0-7.304 0-2.166-1.043-3.807-2.863-4.542-1.86-.744-3.678-.32-5.231 1.24-3.05 3.063-6.114 6.11-9.143 9.194-3.907 3.972-10.377 3.575-13.695-.575-2.135-2.67-2.645-5.684-1.427-8.854 1.23-3.204 3.634-5.146 7.07-5.697 3.784-.605 7.425 1.064 9.317 4.166.313.51.31.842-.14 1.267-1.026.97-2.007 1.994-3.1 3.094ZM45.509 27.222l.186-1.535h4.407v16.789h-4.405c-.054-.469-.104-.912-.186-1.54-2.296 1.957-4.826 2.46-7.585 1.674-1.86-.532-3.288-1.675-4.37-3.254-2.453-3.576-2.12-8.478.805-11.613a7.782 7.782 0 0 1 5.38-2.564c2.13-.134 4.026.47 5.768 2.043Zm-4.51 11.395c2.707.01 4.633-1.905 4.608-4.578-.022-2.622-1.947-4.571-4.546-4.605-2.6-.033-4.6 1.961-4.594 4.636.006 2.676 1.855 4.538 4.532 4.547ZM59.31 25.595c1.088 0 1.946.024 2.802 0 .608-.023.911.134.872.818-.049.924-.049 1.85 0 2.774.03.63-.229.802-.815.778-.861-.035-1.722-.01-2.736-.01v1.141c0 3.421-.032 6.843.022 10.264.015.891-.29 1.128-1.116 1.068a15.573 15.573 0 0 0-2.419 0c-.891.078-1.088-.3-1.079-1.116.035-3.349.017-6.718.013-10.078 0-1.256 0-1.256-1.282-1.26-1.228 0-1.228 0-1.23-1.189 0-.802.02-1.603 0-2.403-.018-.559.186-.745.756-.76 1.602-.033 1.602-.057 1.832-1.694.467-3.286 2.916-5.38 6.419-5.489.491-.015.982 0 1.546 0v4.242c-1.096.186-2.419 0-3.094 1.193-.253.452-.296 1.01-.491 1.72ZM64.437 29.968v-4.34c.67 0 1.303-.034 1.94 0 .698.046 1.018-.162.99-.93-.031-.818-.215-1.861.2-2.397.414-.536 1.488-.592 2.282-.84.64-.198 1.288-.371 2.047-.589 0 1.35.033 2.579-.013 3.803-.028.696.236.941.908.91.709-.034 1.421.01 2.132-.01.502-.015.735.164.724.692-.025.986-.03 1.973 0 2.957.018.595-.265.733-.791.714-.772-.026-1.546.011-2.318-.011-.482-.013-.651.186-.648.653.015 2.093-.01 4.188.015 6.28.011.972.487 1.447 1.489 1.514.699.046 1.404 0 2.232 0 0 1.302.02 2.498-.024 3.687 0 .171-.31.443-.508.476-1.736.292-3.47.21-5.101-.448-1.948-.787-2.557-2.495-2.616-4.406-.071-2.277-.043-4.558-.017-6.835 0-.664-.186-.966-.893-.914-.64.071-1.286.034-2.03.034Z"/><path d="M101.047 34.426c0 2.65.013 5.13-.024 7.61 0 .187-.348.505-.543.513-1.172.05-2.348.055-3.518 0-.21-.012-.558-.373-.575-.59a23.148 23.148 0 0 1-.02-2.49.94.94 0 0 1 .186-.593c1.449-1.457 2.913-2.89 4.494-4.45ZM30.106 21.05a2.83 2.83 0 0 1-2.79 2.753 2.72 2.72 0 0 1-2.74-2.755 2.85 2.85 0 0 1 2.76-2.791c1.43-.019 2.765 1.325 2.77 2.793ZM99.706 24.907l-3.33 3.305c0-1.048-.02-1.995.024-2.938 0-.13.333-.342.519-.35.878-.04 1.76-.017 2.787-.017Z"/></g></svg>