<svg width="136" height="68" fill="none" xmlns="http://www.w3.org/2000/svg"><mask id="a" style="mask-type:luminance" maskUnits="userSpaceOnUse" x="23" y="17" width="90" height="35"><path d="M23 17h90v35H23V17Z" fill="#fff"/></mask><g mask="url(#a)"><path d="M95.365 52C105.104 52 113 44.165 113 34.5S105.104 17 95.365 17c-9.74 0-17.635 7.835-17.635 17.5S85.625 52 95.365 52Zm-23.108-9.655c.483 0 .948-.19 1.29-.53a1.805 1.805 0 0 0 0-2.56 1.832 1.832 0 0 0-2.975.587 1.803 1.803 0 0 0 .395 1.973c.342.34.806.53 1.29.53Zm-8.121-15.3h4.17v15.418H64.46l-6.351-8.455.05 8.334h-4.18V26.945h3.857l6.3 8.947v-8.847ZM45.327 42.723c-4.017 0-6.784-2.615-6.784-6.39v-9.288h4.18v9.297c0 1.553 1.08 2.625 2.604 2.625 1.535 0 2.615-1.072 2.615-2.616v-9.306h4.18v9.287c0 3.778-2.767 6.391-6.795 6.391ZM32.092 34.54l6.047 7.804h-5.251l-4.5-6.233h-.16v6.231h-4.182V27.045h4.18v6.372h.11l4.25-6.372h4.826l-5.32 7.495Z" fill="#0C2F75"/><path d="M109.605 42.339v-3.697h-5.947l6.401-11.6H97.986v3.686h5.218l-6.43 11.61 12.831.001Zm-13.76-6.01V27.04h-4.18v9.307c0 1.543-1.08 2.615-2.615 2.615-1.524 0-2.604-1.072-2.604-2.625V27.04h-4.18v9.287c0 3.778 2.766 6.392 6.784 6.392 4.028 0 6.795-2.615 6.795-6.392v.002Z" fill="#fff"/></g></svg>