<svg width="136" height="68" fill="none" xmlns="http://www.w3.org/2000/svg"><mask id="a" style="mask-type:luminance" maskUnits="userSpaceOnUse" x="32" y="13" width="72" height="42"><path d="M103.824 13H32.177v42h71.647V13Z" fill="#fff"/></mask><g mask="url(#a)"><path d="M59.367 55c-.429-.11-.86-.213-1.286-.332-1.132-.318-2.013-.971-2.294-2.125-.401-1.643.441-3.529 2.109-4.063.547-.176 1.137-.252 1.714-.3.635-.052 1.276-.03 1.915-.019.318.005.445-.095.398-.426-.095-.69-.497-1.122-1.211-1.113-.702.01-1.402.12-2.102.196-.364.039-.727.093-1.088.154-.265.046-.413-.055-.47-.31-.097-.443-.227-.881-.277-1.331-.019-.168.112-.478.238-.516 2.04-.614 4.105-.958 6.171-.135.928.369 1.45 1.102 1.583 2.084.075.533.119 1.07.13 1.608.022 1.59.018 3.181.023 4.773.002.776-.109.994-.844 1.23-.64.207-1.313.311-1.97.464-.208.049-.413.108-.62.163L59.368 55Zm2.545-3.719h.002c0-.282.023-.567-.012-.845-.013-.106-.16-.28-.245-.28-.66.013-1.326.019-1.978.11-.513.07-.868.558-.897 1.062-.033.563.193.987.77 1.122.513.122 1.07.132 1.6.091.76-.057.757-.096.759-.857l.001-.403ZM89.8 55c-.346-.106-.693-.209-1.038-.318-1.627-.517-2.515-1.683-2.797-3.293-.147-.84-.153-1.708-.168-2.564-.03-2.089 1.611-4.045 3.675-4.45 1.34-.264 2.642-.244 3.878.413 1.252.667 1.932 1.758 2.175 3.099.15.825.195 1.678.194 2.519-.003 2.085-1.405 3.84-3.439 4.386-.256.068-.511.138-.767.208H89.8Zm-1.031-5.407c.07.45.136.899.21 1.347.135.808.773 1.448 1.487 1.499.931.066 1.658-.421 1.934-1.275.347-1.074.32-2.149-.02-3.209-.191-.598-.551-1.102-1.243-1.194-.753-.1-1.4.11-1.83.78-.4.626-.492 1.324-.538 2.052ZM81.151 55c-.303-.104-.607-.207-.91-.312-.766-.266-1.304-.764-1.366-1.584a100.524 100.524 0 0 1-.208-4.273c-.02-.592.028-1.187.061-1.779.015-.27-.1-.36-.357-.356-.31.003-.63.026-.928-.035-.626-.128-.378-.659-.404-1.032-.023-.32-.125-.73.417-.81.251-.037.486-.183.738-.22.517-.08.653-.4.65-.859-.002-.35-.004-.707.061-1.048.036-.182.18-.426.337-.487.603-.235 1.23-.415 1.851-.6.343-.104.547-.005.543.4-.008.659.022 1.32.01 1.979-.009.384.126.526.526.505.528-.028 1.06-.007 1.588.03.112.008.296.164.304.262.036.482.026.968.027 1.452 0 .321-.171.456-.49.45-.516-.008-1.033.005-1.55-.005-.295-.007-.407.108-.405.407.01 1.43-.004 2.86.003 4.29.004.78.315 1.07 1.112 1.036.364-.015.726-.095 1.09-.121.576-.044.663 0 .794.547.1.416.132.85.166 1.278.025.307-.122.515-.451.567-.32.05-.641.104-.96.169-.18.037-.357.101-.535.152L81.15 55Z" fill="#000"/><path d="M57.841 34.53c.329-.514.635-.984.934-1.46 2.675-4.256 5.349-8.512 8.022-12.769 1.284-2.042 2.577-4.08 3.845-6.13.374-.605.92-.939 1.563-1.146.428-.14 1.217.331 1.488.866a97974.192 97974.192 0 0 0 7.398 14.654c1.488 2.954 2.972 5.909 4.453 8.865.2.396.424.782.597 1.19.174.406.076.615-.364.633-1.03.04-2.062.035-3.094.011-.423-.01-.723-.281-.913-.655l-1.46-2.875-5.269-10.398c-.943-1.858-1.9-3.709-2.837-5.57-.163-.324-.278-.274-.436-.02a2897.4 2897.4 0 0 1-2.294 3.666l-5.284 8.422c-1.372 2.194-2.727 4.398-4.102 6.588-.206.328-.468.63-.744.903-.426.42-.97.487-1.464.194-.59-.349-1.144-.768-1.67-1.21-2.556-2.156-5.097-4.329-7.644-6.495-.484-.412-.552-.402-.846.18-.771 1.524-1.525 3.055-2.295 4.58-1.096 2.172-2.205 4.338-3.299 6.51-1.75 3.47-3.495 6.943-5.239 10.417a6.784 6.784 0 0 1-.353.632c-.225.349-.53.566-.971.562-.965-.009-1.93.011-2.894-.016-.5-.015-.594-.152-.392-.604.417-.93.868-1.847 1.326-2.758 1.427-2.835 2.859-5.667 4.297-8.496l4.83-9.53c.977-1.93 1.944-3.863 2.922-5.793.13-.252.283-.491.458-.713.618-.784 1.423-.91 2.202-.287 1.056.846 2.079 1.734 3.11 2.611 2.02 1.718 4.04 3.438 6.056 5.16.09.079.19.148.363.281Z" fill="red"/><path d="M70.441 47.845c.105-.155.197-.318.314-.462.564-.691 1.16-1.358 1.694-2.069.438-.583.97-.86 1.704-.818.582.033 1.169-.003 1.752.01.164.004.327.075.602.142-.312.404-.552.738-.815 1.054-.589.706-1.195 1.396-1.775 2.11-.085.106-.122.335-.065.457.682 1.474 1.387 2.938 2.083 4.407.241.51.475 1.023.702 1.54.134.303.017.475-.311.48-.76.012-1.522.009-2.282.016-.33.003-.526-.164-.651-.453a417.183 417.183 0 0 0-1.375-3.131c-.102-.23-.236-.445-.399-.746-.624.711-1.443 1.2-1.398 2.255.023.525.017 1.052.014 1.578-.002.329-.142.542-.511.538-.598-.007-1.197.003-1.794-.02-.583-.021-.674-.138-.676-.705l-.03-12.423c0-.188-.006-.377 0-.566.008-.283.16-.477.442-.483a53.01 53.01 0 0 1 2.241 0c.327.006.328.267.328.503v3.683c0 .863 0 1.726.002 2.59 0 .137.022.273.034.41l.17.103ZM45.483 50.765c-.048-1.44-.146-2.83-.123-4.214.019-1.082.114-2.176.313-3.24.223-1.192 1.369-2.094 2.7-2.132 2.131-.06 4.265-.022 6.397-.033.28-.002.404.126.41.38.013.578.023 1.159.021 1.737 0 .278-.138.462-.436.487-.298.026-.594.067-.891.064-1.277-.009-2.554-.049-3.83-.045-1.275.003-1.524.264-1.529 1.52 0 .297.017.595-.004.89-.021.307.121.416.404.414.72-.005 1.44-.014 2.16-.008.95.008 1.9.035 2.851.037.331 0 .493.178.498.459.01.564-.011 1.128-.062 1.69-.01.119-.193.292-.32.317a5.393 5.393 0 0 1-1.05.087c-1.21-.007-2.419-.049-3.628-.046-.85.002-.84.025-.84.869 0 1.402-.019 2.804-.01 4.206.003.344-.122.51-.46.506-.77-.008-1.54-.011-2.309-.048-.092-.004-.247-.2-.249-.31-.02-1.213-.014-2.426-.014-3.587ZM100.582 51.068c0 .997-.005 1.994.002 2.99.004.41-.118.665-.59.67-.556.005-1.11.074-1.664.069-.554-.006-.688-.134-.758-.682-.045-.344-.038-.695-.037-1.043.003-.93.015-1.858.025-2.787.012-1.158-.03-2.32.056-3.473.082-1.095.74-1.854 1.76-2.275 1.321-.545 2.693-.574 4.072-.292.159.033.374.32.374.49 0 .628-.066 1.258-.146 1.882-.011.092-.234.213-.364.219-.65.034-1.302.022-1.952.05-.502.022-.74.21-.757.71-.034 1.023-.007 2.046-.005 3.068v.405l-.016-.001Z" fill="#000"/></g></svg>