<svg width="136" height="68" fill="none" xmlns="http://www.w3.org/2000/svg"><mask id="a" style="mask-type:luminance" maskUnits="userSpaceOnUse" x="41" y="13" width="53" height="41"><path d="M93.202 13h-51.23v40.76h51.23V13Z" fill="#fff"/></mask><g mask="url(#a)" fill="#000"><path d="m74.168 20.988 2.19-4.933c.41-.92.827-1.834 1.222-2.759.094-.217.216-.296.44-.292.663.009 1.326.01 1.988 0 .275-.004.304.08.197.32-.981 2.191-1.958 4.385-2.93 6.581a4412.616 4412.616 0 0 1-3.526 7.893c-.159.352.04.343.276.343h13.369c2.59 0 4.717 1.526 5.534 3.972.202.606.263 1.235.263 1.87 0 4.628-.035 9.256.01 13.883.033 3.407-2.72 5.903-5.917 5.894-13.159-.036-26.317-.015-39.475-.015-3.207 0-5.749-2.36-5.79-5.567-.066-4.868-.061-9.736.012-14.605.045-3.059 2.613-5.43 5.684-5.431 7.588-.002 15.176 0 22.764.007.373 0 .554-.102.7-.456a116.574 116.574 0 0 1 1.529-3.46c.076-.165.09-.28.012-.454-1.535-3.458-3.058-6.922-4.594-10.381-.13-.29-.124-.405.234-.395.602.018 1.205.022 1.806-.002.323-.013.476.106.603.402 1.055 2.472 2.127 4.936 3.195 7.402.03.069.049.143.204.183Zm-5.48 25.895c.011-.104.032-.207.032-.31.002-3.472.002-6.944 0-10.416 0-.103-.02-.207-.032-.31-.013-.166-.14-.124-.236-.124-.392-.002-.783 0-1.174 0-.874 0-.872 0-.915.85-.005.096.053.226-.08.275-.103.037-.157-.067-.22-.123-.803-.709-1.749-1.092-2.798-1.245-1.732-.253-3.289.119-4.598 1.32-1.834 1.683-2.28 3.81-1.774 6.146.43 1.991 1.663 3.417 3.607 4.05 1.989.646 3.889.374 5.552-1.003.073-.06.126-.202.251-.123.045.027.051.13.061.199.042.291-.145.698.096.85.23.145.61.055.925.06.346.006.693.004 1.039 0 .095-.002.218.05.264-.096Zm13.257.096c-1.314-1.796-2.55-3.497-3.802-5.187-.169-.23-.191-.377-.014-.625a478.36 478.36 0 0 0 3.44-4.915c.105-.152.34-.303.25-.485-.079-.155-.332-.056-.506-.06-.587-.009-1.175.011-1.76-.009-.302-.01-.494.077-.67.338-.816 1.209-1.666 2.394-2.478 3.604-.202.3-.288.288-.48.003a318.75 318.75 0 0 0-2.424-3.535c-.108-.155-.184-.39-.404-.394-.865-.016-1.73-.006-2.654-.006.104.176.158.282.225.379 1.165 1.662 2.323 3.33 3.506 4.982.213.296.225.49.005.783a296.8 296.8 0 0 0-3.288 4.471c-.14.193-.347.364-.382.66.781 0 1.533-.015 2.284.006.303.009.494-.079.673-.331.808-1.142 1.643-2.265 2.455-3.403.194-.272.3-.277.5.006.816 1.154 1.655 2.293 2.488 3.435.094.13.164.288.371.287.85-.006 1.703-.004 2.665-.004Zm-32.577-6.111h.013c0 .933-.044 1.87.01 2.8.082 1.389.617 2.552 1.94 3.183 1.405.67 2.823.57 4.223-.054.703-.313.702-.313.317-.988a10.126 10.126 0 0 1-.194-.356c-.396-.756-.387-.72-1.19-.51-1.657.435-2.773-.236-2.75-1.97a185.64 185.64 0 0 0-.003-4.79c-.005-.384.077-.525.493-.511 1.007.032 2.016.004 3.024.015.247.002.351-.06.338-.329a11.981 11.981 0 0 1 0-1.265c.017-.302-.09-.384-.384-.379-1.023.016-2.047-.005-3.07.012-.323.006-.408-.103-.401-.415.019-.903-.002-1.807.01-2.71.004-.274-.088-.378-.364-.371a17.86 17.86 0 0 1-1.535-.004c-.366-.02-.5.077-.488.469.029.889-.001 1.777.015 2.666.005.276-.078.372-.355.364-.556-.017-1.114.017-1.67-.012-.334-.018-.413.11-.396.413.022.391.022.783 0 1.174-.017.29.063.402.372.388.556-.024 1.114.01 1.67-.013.304-.012.383.099.379.389-.014.936-.004 1.87-.004 2.804Zm36.509.499c0-1.747-.007-3.494.006-5.24.002-.315-.09-.426-.41-.411-.511.027-1.023.027-1.534 0-.344-.02-.435.095-.43.43.017 1.325.007 2.65.007 3.976 0 2.138.007 4.276-.007 6.414-.003.352.086.478.452.454.496-.03.993-.03 1.488 0 .335.018.439-.083.436-.427-.017-1.733-.008-3.465-.008-5.196Zm-1.246-7.293c.924.01 1.559-.57 1.568-1.43a1.483 1.483 0 0 0-1.478-1.492c-.857-.008-1.553.65-1.556 1.47-.003.799.648 1.444 1.466 1.452Z"/><path d="M49.369 18.936c0-1.718.012-3.436-.01-5.154-.004-.37.109-.469.46-.45.497.027.994.027 1.49 0 .335-.016.458.09.44.434-.01.208-.136.51.085.615.149.072.285-.215.427-.338 1.692-1.49 5.165-1.487 6.614.732.189.29.273.178.441-.017 1.354-1.57 3.095-2.022 5.058-1.61 1.819.382 3.108 2.07 3.141 4.075.038 2.335.006 4.672.014 7.008 0 .256-.077.347-.333.34a17.58 17.58 0 0 0-1.535.004c-.37.023-.483-.08-.48-.467.02-2.064.007-4.13.011-6.194.002-.874-.253-1.64-.946-2.2-1.19-.963-3.166-.598-4.01.718-.482.753-.61 1.594-.614 2.46a361 361 0 0 0 .004 5.246c.004.334-.08.456-.425.436a13.807 13.807 0 0 0-1.49 0c-.342.018-.46-.067-.457-.441.02-2.08.016-4.16.007-6.24-.006-1.34-.802-2.447-1.882-2.652-1.676-.318-3.017.53-3.47 2.184-.138.5-.168 1.01-.169 1.522-.003 1.733-.011 3.466.007 5.2.004.347-.103.443-.435.427a14.012 14.012 0 0 0-1.535.002c-.357.022-.42-.115-.416-.44.017-1.733.008-3.467.008-5.2ZM66.36 41.342c.007 1.632-.71 2.857-2.188 3.53-1.38.628-2.751.47-3.919-.534-1.187-1.02-1.418-2.388-1.163-3.866.275-1.59 1.523-2.781 3.05-2.933 1.743-.174 3.345.72 3.953 2.215.207.507.276 1.042.266 1.588Z"/></g><path d="M55.898 45.81c.385.676.385.676-.317.988-1.4.624-2.819.723-4.223.053-1.322-.63-1.857-1.794-1.938-3.181-.055-.931-.011-1.867-.011-2.802h-.013c0-.933-.01-1.868.005-2.802.005-.29-.074-.4-.379-.388-.556.022-1.113-.012-1.67.012-.308.015-.389-.097-.371-.387.021-.391.021-.783 0-1.174-.018-.304.06-.43.396-.411.555.029 1.113-.004 1.67.012.274.008.359-.088.353-.364-.015-.891.015-1.778-.014-2.666-.013-.391.122-.489.487-.468.511.03 1.024.017 1.535 0 .274-.007.368.097.365.371-.012.904.008 1.808-.012 2.711-.006.312.08.42.402.415 1.023-.018 2.046.004 3.069-.012.294-.005.4.077.384.378-.023.422-.023.844 0 1.266.013.267-.09.33-.338.327-1.008-.01-2.017.018-3.024-.014-.415-.015-.499.126-.493.51.02 1.597.024 3.195.003 4.791-.023 1.733 1.094 2.405 2.749 1.97.804-.21.794-.246 1.19.51.063.12.128.238.194.355ZM68.717 35.847c.016.103.027.207.032.311v10.414a2.98 2.98 0 0 1-.032.312c-.047.147-.17.094-.266.096-.346.004-.692.006-1.038 0-.314-.006-.696.084-.925-.061-.241-.152-.055-.558-.096-.85-.01-.069-.016-.17-.06-.199-.127-.078-.18.063-.252.123-1.664 1.378-3.566 1.65-5.555 1.003-1.944-.633-3.175-2.057-3.607-4.05-.506-2.336-.06-4.463 1.775-6.145 1.31-1.203 2.866-1.578 4.594-1.321 1.05.154 1.995.537 2.798 1.244.063.056.117.16.22.124.137-.049.076-.18.081-.274.042-.85.041-.85.914-.85h1.175c.102 0 .228-.042.242.123ZM78.172 41.792c1.252 1.691 2.488 3.392 3.802 5.188h-2.668c-.205 0-.274-.156-.371-.286-.833-1.143-1.673-2.28-2.489-3.436-.2-.283-.304-.277-.5-.005-.81 1.138-1.645 2.263-2.454 3.402-.179.253-.37.343-.672.332-.751-.02-1.504-.007-2.284-.007.035-.295.242-.466.381-.66a318.863 318.863 0 0 1 3.292-4.469c.22-.293.206-.487-.005-.783-1.183-1.65-2.342-3.318-3.507-4.982-.068-.095-.12-.202-.225-.378.925 0 1.79-.01 2.654.006.22.005.297.239.405.394.814 1.175 1.627 2.35 2.424 3.536.191.284.278.296.48-.004.81-1.209 1.661-2.394 2.477-3.6.176-.26.368-.348.669-.338.587.02 1.174 0 1.76.01.175 0 .428-.096.506.06.091.18-.144.332-.25.483a439.13 439.13 0 0 1-3.44 4.915c-.177.247-.154.393.015.622ZM85.912 46.561c0 .343-.1.445-.435.427a12.23 12.23 0 0 0-1.488 0c-.366.025-.455-.102-.453-.453.016-2.138.008-4.276.008-6.415 0-1.325.01-2.65-.007-3.977-.005-.336.087-.45.43-.43.512.026 1.023.026 1.534 0 .32-.015.411.095.411.411-.012 1.747-.006 3.497-.006 5.24-.001 1.735-.01 3.466.006 5.197ZM83.193 32.622c.004-.823.7-1.478 1.556-1.47a1.484 1.484 0 0 1 1.479 1.493c-.01.86-.645 1.44-1.568 1.43a1.46 1.46 0 0 1-1.467-1.453Z" fill="#FBE500"/><path d="M93.222 33.983c0-.636-.06-1.265-.264-1.87-.816-2.447-2.943-3.972-5.533-3.973H74.056c-.236 0-.435.008-.274-.343a1660.03 1660.03 0 0 0 3.526-7.893c.978-2.194 1.949-4.389 2.932-6.583.107-.24.078-.324-.197-.32-.663.01-1.326.009-1.989 0-.225-.003-.347.075-.44.292-.395.925-.814 1.84-1.223 2.759l-2.194 4.933a.248.248 0 0 1-.206-.183c-1.066-2.463-2.14-4.927-3.192-7.399-.126-.296-.279-.415-.602-.402a24.14 24.14 0 0 1-1.807 0c-.358-.01-.363.103-.233.396 1.535 3.458 3.057 6.922 4.594 10.38.077.175.063.29-.013.455-.521 1.147-1.044 2.295-1.528 3.459-.147.354-.328.457-.7.456-7.59-.011-15.178-.013-22.766-.007-3.075.003-5.642 2.375-5.686 5.431a524.034 524.034 0 0 0-.013 14.606c.042 3.207 2.585 5.567 5.791 5.567 13.159 0 26.318-.021 39.476.016 3.195.009 5.95-2.488 5.918-5.897-.045-4.623-.012-9.25-.008-13.88Zm-46.24 2.146c-.018-.304.06-.43.395-.411.555.03 1.113-.004 1.67.012.274.008.36-.088.354-.363-.016-.892.015-1.778-.015-2.666-.013-.392.123-.49.488-.469.51.03 1.024.017 1.535 0 .274-.007.368.098.364.371-.012.904.008 1.808-.011 2.712-.006.312.079.42.402.414 1.023-.017 2.046.005 3.068-.012.294-.005.4.078.384.379a11.97 11.97 0 0 0 0 1.265c.013.267-.09.33-.338.327-1.008-.01-2.017.018-3.023-.014-.416-.014-.5.126-.494.51.02 1.597.024 3.195.004 4.791-.024 1.734 1.093 2.405 2.749 1.97.803-.21.794-.246 1.19.51.063.12.128.238.194.356.385.676.385.675-.316.988-1.4.623-2.819.722-4.223.053-1.322-.631-1.858-1.794-1.939-3.182-.055-.931-.01-1.867-.01-2.801h-.014c0-.934-.01-1.869.006-2.803.005-.29-.074-.4-.379-.388-.556.022-1.114-.012-1.67.013-.309.014-.39-.098-.372-.388.022-.391.022-.783 0-1.174Zm19.41.445c.041-.85.04-.85.914-.85h1.174c.097 0 .223-.042.237.123.016.103.027.207.032.31v10.415a2.98 2.98 0 0 1-.032.312c-.047.147-.17.094-.266.096-.346.004-.692.006-1.038 0-.314-.006-.696.084-.925-.061-.241-.152-.055-.558-.096-.85-.01-.07-.016-.17-.06-.199-.127-.079-.18.063-.252.123-1.664 1.378-3.566 1.65-5.555 1.003-1.944-.633-3.175-2.057-3.607-4.05-.506-2.337-.06-4.463 1.775-6.146 1.31-1.202 2.866-1.577 4.594-1.32 1.05.153 1.995.537 2.798 1.244.063.056.117.16.22.124.14-.048.081-.18.087-.274Zm11.78 5.218c1.252 1.691 2.488 3.392 3.802 5.188h-2.668c-.205 0-.274-.157-.371-.286-.833-1.143-1.673-2.28-2.489-3.436-.2-.283-.304-.277-.5-.005-.81 1.138-1.645 2.263-2.454 3.402-.179.253-.37.343-.673.332-.75-.021-1.503-.007-2.283-.007.035-.295.241-.467.381-.66a318.06 318.06 0 0 1 3.292-4.469c.22-.293.205-.487-.005-.783-1.183-1.65-2.342-3.318-3.507-4.982-.068-.095-.12-.202-.225-.379.925 0 1.79-.01 2.654.007.22.004.297.239.404.394.814 1.175 1.628 2.35 2.424 3.535.192.285.279.297.48-.003.811-1.209 1.662-2.394 2.477-3.6.177-.26.37-.348.67-.338.587.02 1.173 0 1.76.01.175 0 .428-.096.506.06.091.18-.144.332-.25.483a439.138 439.138 0 0 1-3.44 4.915c-.177.247-.154.393.015.622Zm5.372-1.67c0-1.325.01-2.651-.007-3.978-.005-.335.087-.45.43-.43.511.026 1.023.026 1.534 0 .32-.015.411.096.411.412-.012 1.747-.006 3.497-.006 5.24 0 1.731-.009 3.463.008 5.194 0 .343-.101.445-.436.427a12.23 12.23 0 0 0-1.488 0c-.366.025-.454-.102-.452-.454.016-2.135.006-4.273.006-6.412Zm1.115-6.047a1.46 1.46 0 0 1-1.466-1.453c.004-.822.7-1.478 1.556-1.469a1.483 1.483 0 0 1 1.479 1.492c-.01.858-.645 1.44-1.569 1.43Z" fill="#020200"/><path d="M49.397 18.937c0-1.718.011-3.437-.01-5.154-.004-.37.11-.47.46-.45.497.026.994.026 1.49 0 .335-.016.459.089.44.434-.01.206-.137.509.084.617.15.069.286-.214.428-.338 1.692-1.491 5.165-1.489 6.614.73.19.29.274.178.441-.017 1.354-1.57 3.095-2.023 5.059-1.61 1.818.381 3.107 2.069 3.14 4.074.038 2.335.006 4.672.014 7.008 0 .257-.076.347-.333.343-.511-.013-1.025-.027-1.535.004-.369.023-.48-.08-.48-.467.02-2.064.006-4.129.01-6.194 0-.874-.253-1.64-.946-2.2-1.191-.96-3.166-.598-4.01.719-.48.754-.61 1.593-.617 2.46a372.76 372.76 0 0 0 .005 5.245c.003.334-.08.456-.426.437a13.653 13.653 0 0 0-1.489 0c-.343.018-.46-.069-.457-.442.02-2.08.016-4.16.007-6.24-.005-1.34-.802-2.447-1.883-2.652-1.675-.319-3.017.53-3.47 2.184-.137.5-.167 1.01-.168 1.521 0 1.734-.011 3.467.007 5.2.004.348-.104.444-.435.428a13.978 13.978 0 0 0-1.535 0c-.357.022-.419-.115-.416-.439.02-1.735.011-3.468.011-5.2ZM66.388 41.342c.007 1.633-.71 2.857-2.188 3.53-1.38.628-2.752.47-3.919-.533-1.187-1.02-1.418-2.388-1.165-3.866.274-1.592 1.522-2.782 3.048-2.934 1.745-.174 3.347.72 3.955 2.216.197.505.288 1.045.269 1.587Z" fill="#020200"/></svg>