<svg width="136" height="68" fill="none" xmlns="http://www.w3.org/2000/svg"><mask id="a" style="mask-type:luminance" maskUnits="userSpaceOnUse" x="36" y="14" width="64" height="40"><path d="M99.972 14h-63.95v40h63.95V14Z" fill="#fff"/></mask><g mask="url(#a)"><path d="M44.226 46.915v3.19c0 2.605-1.024 3.651-3.872 3.651h-4.332V34.208h4.064c2.826 0 3.847 1.022 3.847 3.65v2.534c0 1.607-.389 2.629-1.363 3.188 1.169.512 1.656 1.558 1.656 3.335Zm-5.258-10.37v6.111h1.118c.536 0 .894-.223.894-.999v-4.113c0-.78-.364-1-.894-1h-1.118Zm2.312 9.425c0-.778-.39-.973-.926-.973h-1.386v6.428h1.386c.537 0 .926-.224.926-.975v-4.48ZM49.883 33.964h.049c2.935 0 3.975 1.022 3.975 3.653v12.73c0 2.606-1.047 3.653-3.99 3.653h-.035c-2.946 0-3.992-1.024-3.992-3.653v-12.73c-.01-2.602 1.062-3.653 3.992-3.653Zm-1.047 3.41V50.59c0 .78.46 1 1.047 1h.049c.608 0 1.046-.224 1.046-1V37.373c0-.755-.414-1-1.046-1h-.05c-.594 0-1.055.22-1.055 1h.01ZM62.069 51.42v2.336h-6.573V34.208h2.947v17.214l3.626-.002ZM69.03 50.25h-2.19l-.29 3.506h-3.24l2.653-19.548h3.944l2.654 19.548h-3.229l-.301-3.505Zm-.194-2.335-.682-8.035-.223-2.506-.224 2.506-.682 8.035h1.811ZM80.327 51.42v2.336h-6.573V34.208h2.956v17.214l3.617-.002ZM87.29 50.25h-2.192l-.293 3.506h-3.237l2.654-19.548h3.944l2.653 19.548h-3.237l-.293-3.505Zm-.195-2.335-.671-8.035-.224-2.506-.223 2.506-.682 8.035h1.8ZM99.972 53.756h-2.918l-.12-6.961c-.025-.926-.447-1.17-1.071-1.17h-.894v8.131H92.01V34.208h4.066c2.824 0 3.846 1.022 3.846 3.65v3.193c0 1.704-.463 2.75-1.565 3.287 1.117.487 1.462 1.607 1.486 3.577l.128 5.841Zm-5.015-17.214v6.745h1.118c.534 0 .894-.224.894-.975v-4.768c0-.78-.366-1-.894-1l-1.118-.002Z" fill="#FCCB6A"/><path d="M74.792 20.557h-.541v7.612h.548c.275 0 .474-.112.474-.499V21.07c-.007-.398-.195-.512-.481-.512ZM64.79 20.47h-.025c-.3 0-.534.114-.534.512v6.762c0 .4.223.512.534.512h.025c.313 0 .536-.111.536-.512v-6.762c0-.387-.212-.512-.536-.512ZM47.962 20.47h-.025c-.3 0-.536.114-.536.512v6.762c0 .4.237.512.536.512h.025c.31 0 .537-.111.537-.512v-6.762c0-.387-.213-.512-.537-.512ZM79.688 20.981l-.112 1.284-.349 4.109h.921l-.348-4.11-.112-1.283Z" fill="#000"/><path d="M89.688 17.725H44.899a1.103 1.103 0 0 0-1.118 1.106V30.01a1.117 1.117 0 0 0 1.118 1.118h44.789a1.117 1.117 0 0 0 1.118-1.117V18.83a1.118 1.118 0 0 0-1.118-1.106Zm-39.683 9.897c0 1.341-.536 1.867-2.043 1.867h-.025c-1.506 0-2.043-.524-2.043-1.867v-6.515c0-1.341.548-1.869 2.043-1.869h.025c1.507 0 2.043.523 2.043 1.87v6.514Zm4.858 0c0 1.341-.523 1.867-2.012 1.867h-.098c-1.458 0-1.98-.535-1.98-1.867v-.812l1.5-.067v1.009c0 .4.185.512.473.512h.098a.448.448 0 0 0 .512-.512V26.6a1.543 1.543 0 0 0-.3-.872l-1.593-2.204a3.072 3.072 0 0 1-.648-1.789v-.628c0-1.341.536-1.869 1.98-1.869h.025c1.458 0 1.98.523 1.98 1.87v.746l-1.506.074v-.946c0-.387-.188-.512-.474-.512h-.031c-.275 0-.474.114-.474.512v.709c.017.302.12.592.3.836l1.6 2.204c.407.525.634 1.167.648 1.831v1.06Zm7.05 1.744h-1.494l.136-4.648.074-2.08-.384 2.08-.998 4.61h-.87l-.999-4.61-.398-2.093.088 2.093.136 4.648h-1.493v-10h1.788l1.118 5.642.224 1.221.198-1.22 1.118-5.643h1.789l-.034 10Zm4.918-1.744c0 1.341-.535 1.867-2.044 1.867h-.024c-1.507 0-2.044-.524-2.044-1.867v-6.515c0-1.341.55-1.869 2.044-1.869h.024c1.51 0 2.044.523 2.044 1.87v6.514Zm5.032 1.744H70.57l-1.31-4.61-.298-1.196.05 1.196.136 4.61H67.64v-10h1.297l1.245 4.433.36 1.433-.05-1.433-.133-4.433h1.506l-.002 10Zm4.896-1.87c0 1.342-.523 1.87-1.97 1.87h-2.054v-10h2.055c1.446 0 1.97.523 1.97 1.866v6.265Zm3.635 1.87-.147-1.789h-1.118l-.15 1.789h-1.656l1.357-10h2.012l1.359 10.002-1.657-.002Zm6.036 0h-.934l-.36-.76c-.3.523-.722.894-1.297.894h-.049c-.823 0-1.433-.573-1.433-1.905v-6.483c0-1.342.548-1.87 1.994-1.87h.025c1.469 0 1.992.524 1.992 1.87v.983l-1.507.063v-1.176c0-.387-.188-.512-.485-.512h-.025c-.275 0-.487.114-.487.512v6.602c0 .572.25.67.498.67.311 0 .562-.223.562-.86v-2.3h-.51v-1.197h2.012l.004 5.469Zm2.205 0h-1.507v-10h1.507v10Z" fill="#000"/><path d="M78.255 16.535h12.43a1.283 1.283 0 0 1 1.281 1.281v13.296L94.356 14l-16.101 2.535Z" fill="#FCCB6A"/></g></svg>