<svg width="136" height="68" fill="none" xmlns="http://www.w3.org/2000/svg"><path d="M91.343 27.37c.028.754-.023 1.508-.152 2.251-.432 3.05-2.408 4.725-5.157 5.599-2.405.758-4.91.902-7.423.87-.095 0-.192 0-.29-.009-.218-.02-.332.067-.348.293-.02.252.151.227.314.244 1.616.152 3.224.049 4.83-.133 1.49-.17 2.987-.304 4.407-.851a12.584 12.584 0 0 0 2.62-1.434c.046.281-.068.48-.134.68-.35 1.074-.678 2.158-1.326 3.103-1.19 1.735-2.882 2.444-4.938 2.451-2.057.008-4.08-.348-6.109-.635a7.046 7.046 0 0 1-.716-.117c-.332-.08-.465.152-.518.373-.065.272.221.215.365.255 3.11.825 6.252 1.3 9.459.886.105.17-.017.236-.082.317a16.315 16.315 0 0 1-1.773 1.917c-1.09.977-2.406 1.095-3.77.99-1.77-.138-3.377-.822-4.962-1.556a6.248 6.248 0 0 1-.739-.36c-.303-.19-.541-.133-.687.152-.145.286.187.317.334.408 2.13 1.302 4.417 2.19 6.903 2.529.136.018.335-.02.394.129.077.19-.141.265-.246.365-1.879 1.82-4.673 2.045-7.062.586a10.391 10.391 0 0 1-2.123-1.743c-.143-.152-.249-.455-.572-.176-.303.255-.091.417.045.607 1.294 1.788 3.043 2.894 5.168 3.435a.979.979 0 0 1 .13.055c0 .036.019.085 0 .094-.946.708-1.982 1.213-3.185 1.273-.867.04-1.595-.348-2.239-.898a10.181 10.181 0 0 1-1.855-2.159c-.086-.132-.094-.491-.42-.303-.285.162-.318.375-.151.685.758 1.45 1.68 2.758 2.974 3.77.326.254.291.386 0 .597a14.104 14.104 0 0 1-4.399 2.075.671.671 0 0 1-.379-.009 13.816 13.816 0 0 1-4.238-1.972c-.518-.367-.505-.376-.036-.766a11.328 11.328 0 0 0 2.882-3.723c.085-.172.196-.334 0-.522s-.334-.27-.514.029a9.9 9.9 0 0 1-1.848 2.228c-1.189 1.074-2.505 1.227-3.943.591a9.012 9.012 0 0 1-1.684-.958c.78-.185 1.535-.46 2.25-.822a8.619 8.619 0 0 0 3.218-2.73c.152-.213.27-.38-.01-.607-.278-.228-.377.02-.501.151-1.24 1.328-2.668 2.323-4.505 2.649-1.864.332-3.44-.2-4.785-1.496-.088-.085-.255-.151-.214-.294.04-.143.215-.12.338-.138a19.178 19.178 0 0 0 3.385-.8c1.293-.438 2.48-1.093 3.654-1.771.125-.073.455-.091.283-.38-.13-.209-.304-.339-.607-.189a26.71 26.71 0 0 1-3.15 1.365c-1.263.44-2.55.695-3.896.607a4.085 4.085 0 0 1-2.481-.97 14.964 14.964 0 0 1-2.031-2.235c.868.046 1.63.11 2.395.121 2.507.037 4.943-.441 7.355-1.061.112-.03.303-.038.215-.23-.088-.194-.152-.427-.478-.371-.606.108-1.213.191-1.82.278-1.915.274-3.828.584-5.779.436-2.275-.172-3.802-1.378-4.753-3.382a15.929 15.929 0 0 1-.974-2.827c.519.318.934.585 1.365.833 1.487.86 3.13 1.18 4.807 1.365 1.878.207 3.754.436 5.647.23.163-.017.426.11.423-.227-.003-.339-.246-.314-.478-.304a26.908 26.908 0 0 1-6.731-.616 9.135 9.135 0 0 1-3.894-1.865c-1.646-1.365-2.155-3.228-2.267-5.256-.016-.27 0-.543 0-.805.103-.068.162 0 .22.048 2.166 2.104 4.823 3.304 7.668 4.149 1.505.434 3.045.736 4.602.9.191.023.455.177.495-.227.028-.346-.185-.35-.42-.376-2.826-.303-5.49-1.165-8.02-2.427-2.015-.998-3.614-2.442-4.345-4.65-.514-1.566-.346-3.143-.055-4.711a.226.226 0 0 1 .235.115c3.008 3.833 6.993 6.184 11.576 7.625.455.152.933.258 1.393.402.24.076.355 0 .433-.226.091-.258-.075-.304-.248-.366-.717-.259-1.43-.52-2.137-.782-2.753-1.01-5.227-2.494-7.226-4.639-2.106-2.261-2.691-4.969-1.857-7.95.249-.897.865-1.573 1.453-2.258.075-.086.18-.048.273-.045.069.607.369 1.131.654 1.649 1.198 2.17 2.815 4.033 4.487 5.848 1.988 2.162 4.28 3.958 6.739 5.544.644.416 1.245.91 1.979 1.183 0 .196-.141.32-.243.463a7.294 7.294 0 0 0 1.761 10.238c.137.096.256.252.502.214a6.114 6.114 0 0 1 .513-3.862c.607-1.225 1.568-2.123 2.808-2.86-.252-.078-.387-.133-.527-.152-1.62-.32-1.68-2.275-1.051-3.205.082-.121.152-.273.303-.058.718.951 1.736 1.528 2.706 2.162 1.101.717 2.168 1.47 2.835 2.65.093.163.246.359.152.533-.094.175-.325.044-.489.037-.967-.041-1.84.11-2.375 1.05-.814 1.427-.226 3.22 1.292 3.98a.91.91 0 0 0 .944-.016 7.32 7.32 0 0 0 2.543-10.664c-.109-.152-.27-.287-.265-.502.13-.06.267-.106.39-.178a37.501 37.501 0 0 0 11.71-10.657c.745-1.046 1.461-2.123 1.762-3.41.274.025.402.253.56.424 1.5 1.632 1.715 3.589 1.38 5.662-.42 2.59-1.972 4.41-4.014 5.93-2.2 1.643-4.652 2.76-7.24 3.615-.175.06-.507.017-.442.38.052.294.221.334.494.26 2.154-.588 4.247-1.307 6.2-2.427 2.308-1.33 4.456-2.853 6.188-4.905.114-.135.217-.28.332-.414.115-.133.162-.319.393-.419.14.263.123.556.164.824.37 2.427.04 4.667-1.733 6.522-1.158 1.213-2.561 2.052-4.107 2.67-2.178.87-4.398 1.59-6.754 1.82-.249.023-.38.094-.36.38.022.322.228.254.412.231 3.635-.44 7.089-1.402 10.209-3.373.859-.546 1.651-1.19 2.36-1.92Z" fill="#1E2D56"/><path d="M86.852 12.018c-12.73-.004-25.459-.005-38.187-.002-.167 0-.361-.077-.493.104.068.606.368 1.131.654 1.648 1.198 2.175 2.815 4.038 4.486 5.854 1.989 2.16 4.28 3.957 6.74 5.543.644.416 1.244.91 1.979 1.183.53-.41.97-.925 1.527-1.309a7.28 7.28 0 0 1 9.645 1.174c.064.073.129.152.24.135.13-.059.267-.106.39-.177a37.499 37.499 0 0 0 11.709-10.657c.746-1.046 1.462-2.123 1.762-3.41-.127-.153-.3-.086-.452-.086Zm-27.301 5.993a.72.72 0 0 1-.71-.703.745.745 0 0 1 .705-.718c.316 0 .713.398.722.73a.737.737 0 0 1-.723.69h.006Zm3.526.273a1.016 1.016 0 0 1-.942-1.029.92.92 0 0 1 .956-.88c.47.011.945.48.942.929-.01.482-.504.989-.962.98h.006Zm6.117-.66c-.341.165-.472.405-.344.78.09.267-.071.303-.322.264-.335-.186-.571-.032-.75.303-.11.205-.266.191-.35 0-.153-.346-.353-.496-.741-.378-.221.065-.365-.076-.276-.303.152-.37-.012-.567-.313-.742-.225-.13-.188-.277.04-.374.352-.152.412-.42.322-.759-.091-.338.059-.356.303-.252.329.144.553.043.714-.26.143-.269.294-.277.434 0 .14.278.349.433.7.304.222-.085.37.058.281.278-.151.385 0 .607.304.79.192.12.203.247-.008.349h.006Zm3.13.661a.932.932 0 0 1-.91-.977.922.922 0 0 1 1.603-.637.922.922 0 0 1 .244.678.928.928 0 0 1-.944.936h.006Zm3.668-.274a.722.722 0 0 1-.758-.707c0-.337.38-.7.734-.7a.697.697 0 0 1 .68.724.658.658 0 0 1-.662.683h.006Z" fill="#CBAA97"/></svg>