<svg width="23" height="23" viewBox="0 0 23 23" fill="none" xmlns="http://www.w3.org/2000/svg">
<path d="M11.4997 1.646C11.8794 1.646 12.1872 1.9538 12.1872 2.3335V3.25016C12.1872 3.62986 11.8794 3.93766 11.4997 3.93766C11.12 3.93766 10.8122 3.62986 10.8122 3.25016V2.3335C10.8122 1.9538 11.12 1.646 11.4997 1.646Z" fill="white"/>
<path d="M11.4997 6.22933C8.58867 6.22933 6.22884 8.58916 6.22884 11.5002C6.22884 14.4112 8.58867 16.771 11.4997 16.771C14.4107 16.771 16.7705 14.4112 16.7705 11.5002C16.7705 8.58916 14.4107 6.22933 11.4997 6.22933Z" fill="white"/>
<path d="M5.50401 4.53224C5.23553 4.26375 4.80022 4.26375 4.53174 4.53224C4.26325 4.80072 4.26325 5.23602 4.53174 5.50451L5.17992 6.15269C5.44841 6.42117 5.88371 6.42117 6.15219 6.15269C6.42068 5.8842 6.42068 5.4489 6.15219 5.18042L5.50401 4.53224Z" fill="white"/>
<path d="M21.3538 11.5002C21.3538 11.8799 21.046 12.1877 20.6663 12.1877H19.7497C19.37 12.1877 19.0622 11.8799 19.0622 11.5002C19.0622 11.1205 19.37 10.8127 19.7497 10.8127H20.6663C21.046 10.8127 21.3538 11.1205 21.3538 11.5002Z" fill="white"/>
<path d="M18.4676 5.5045C18.7361 5.23601 18.7361 4.80071 18.4676 4.53223C18.1991 4.26374 17.7638 4.26374 17.4953 4.53223L16.8471 5.18041C16.5787 5.44889 16.5787 5.88419 16.8471 6.15268C17.1156 6.42117 17.5509 6.42117 17.8194 6.15268L18.4676 5.5045Z" fill="white"/>
<path d="M11.4997 19.0627C11.8794 19.0627 12.1872 19.3705 12.1872 19.7502V20.6668C12.1872 21.0465 11.8794 21.3543 11.4997 21.3543C11.12 21.3543 10.8122 21.0465 10.8122 20.6668V19.7502C10.8122 19.3705 11.12 19.0627 11.4997 19.0627Z" fill="white"/>
<path d="M17.8195 16.8476C17.551 16.5792 17.1157 16.5792 16.8472 16.8476C16.5787 17.1161 16.5787 17.5514 16.8472 17.8199L17.4954 18.4681C17.7639 18.7366 18.1992 18.7366 18.4677 18.4681C18.7361 18.1996 18.7361 17.7643 18.4677 17.4958L17.8195 16.8476Z" fill="white"/>
<path d="M3.93717 11.5002C3.93717 11.8799 3.62937 12.1877 3.24967 12.1877H2.33301C1.95331 12.1877 1.64551 11.8799 1.64551 11.5002C1.64551 11.1205 1.95331 10.8127 2.33301 10.8127H3.24967C3.62937 10.8127 3.93717 11.1205 3.93717 11.5002Z" fill="white"/>
<path d="M6.15213 17.8199C6.42062 17.5514 6.42062 17.1161 6.15213 16.8476C5.88365 16.5792 5.44834 16.5792 5.17986 16.8476L4.53168 17.4958C4.26319 17.7643 4.26319 18.1996 4.53168 18.4681C4.80016 18.7366 5.23546 18.7366 5.50395 18.4681L6.15213 17.8199Z" fill="white"/>
</svg>
