<svg width="136" height="68" fill="none" xmlns="http://www.w3.org/2000/svg"><path d="M9.87 42.55v-5.39H8.511v-2.758h1.357v-2.907h3.226v2.907h2.673v2.757h-2.673v4.86c0 .743.318 1.104 1.04 1.104a3.286 3.286 0 0 0 1.591-.403v2.588c-.68.403-1.464.658-2.547.658-1.972 0-3.31-.785-3.31-3.416ZM25.19 39.196c-.188-1.442-1.04-2.418-2.398-2.418-1.335 0-2.209.954-2.458 2.418h4.855Zm-8.02.913c0-3.247 2.312-5.92 5.622-5.92 3.798 0 5.538 2.95 5.538 6.175 0 .254-.021.55-.043.849h-7.914c.318 1.464 1.337 2.227 2.778 2.227 1.083 0 1.867-.34 2.759-1.167l1.846 1.634c-1.06 1.315-2.589 2.121-4.647 2.121-3.416 0-5.941-2.398-5.941-5.92h.001ZM32.846 40.003l-3.84-5.602h3.458l2.122 3.31 2.143-3.31h3.373l-3.84 5.538 4.01 5.836h-3.458l-2.292-3.544-2.291 3.544h-3.374l3.99-5.772ZM41.733 34.402h3.225v1.612c.742-.956 1.697-1.825 3.33-1.825 2.441 0 3.863 1.613 3.863 4.223v7.36h-3.226V39.43c0-1.528-.721-2.313-1.95-2.313-1.23 0-2.017.785-2.017 2.313v6.343h-3.225V34.402ZM63.247 40.109c0-1.676-1.21-3.14-2.994-3.14-1.847 0-2.95 1.422-2.95 3.14 0 1.676 1.21 3.14 2.994 3.14 1.843 0 2.95-1.422 2.95-3.14Zm-9.124 0c0-3.268 2.63-5.92 6.175-5.92 3.522 0 6.132 2.61 6.132 5.92 0 3.267-2.63 5.92-6.175 5.92-3.523 0-6.134-2.61-6.134-5.92h.002ZM68.492 34.402h3.225v1.612c.743-.956 1.72-1.825 3.353-1.825 1.485 0 2.61.657 3.204 1.803.998-1.167 2.183-1.803 3.735-1.803 2.397 0 3.84 1.443 3.84 4.179v7.405h-3.225V39.43c0-1.528-.68-2.313-1.889-2.313s-1.95.785-1.95 2.313v6.343h-3.227V39.43c0-1.528-.68-2.313-1.89-2.313-1.209 0-1.95.785-1.95 2.313v6.343h-3.226V34.402ZM95.158 41.764v-.572a5.008 5.008 0 0 0-2.058-.425c-1.38 0-2.228.552-2.228 1.613 0 .873.72 1.38 1.76 1.38 1.508 0 2.526-.828 2.526-1.997v.001Zm-7.405.7c0-2.482 1.888-3.628 4.582-3.628a8.085 8.085 0 0 1 2.78.467v-.191c0-1.337-.828-2.08-2.441-2.08-1.23 0-2.1.234-3.14.616l-.803-2.462c1.251-.552 2.482-.912 4.413-.912 1.76 0 3.034.466 3.84 1.273.849.849 1.231 2.1 1.231 3.629v6.597h-3.119v-1.23c-.785.874-1.867 1.444-3.437 1.444-2.143 0-3.904-1.231-3.904-3.523h-.002ZM100.802 34.402h3.226v2.291c.658-1.57 1.719-2.588 3.628-2.503v3.373h-.17c-2.143 0-3.458 1.295-3.458 4.01v4.2h-3.226v-11.37ZM110.13 42.55v-5.39h-1.359v-2.758h1.359v-2.907h3.226v2.907h2.673v2.757h-2.673v4.86c0 .743.317 1.104 1.039 1.104a3.285 3.285 0 0 0 1.592-.403v2.588c-.68.403-1.465.658-2.547.658-1.973 0-3.311-.785-3.311-3.416h.001ZM128.254 30.513l-1.318-2.283-2.737 1.58v-3.16h-2.637v3.16l-2.737-1.58-1.319 2.283 2.738 1.58-2.738 1.581 1.319 2.284 2.737-1.58v3.16h2.637v-3.16l2.737 1.58 1.318-2.284-2.737-1.58 2.737-1.58Z" fill="#000"/><mask id="a" style="mask-type:luminance" maskUnits="userSpaceOnUse" x="0" y="23" width="136" height="30"><path d="M136 23H0v29.013h136V23Z" fill="#fff"/></mask><g mask="url(#a)"><path d="M136 23H0v29.013h136V23Z" fill="#FDC100"/><path d="M9.87 42.55v-5.39H8.511v-2.758h1.357v-2.907h3.226v2.907h2.673v2.757h-2.673v4.86c0 .743.318 1.104 1.04 1.104a3.286 3.286 0 0 0 1.591-.403v2.588c-.68.403-1.464.658-2.547.658-1.972 0-3.31-.785-3.31-3.416ZM25.19 39.196c-.188-1.442-1.04-2.418-2.398-2.418-1.335 0-2.209.954-2.458 2.418h4.855Zm-8.02.913c0-3.247 2.312-5.92 5.622-5.92 3.798 0 5.538 2.95 5.538 6.175 0 .254-.021.55-.043.849h-7.914c.318 1.464 1.337 2.227 2.778 2.227 1.083 0 1.867-.34 2.759-1.167l1.846 1.634c-1.06 1.315-2.589 2.121-4.647 2.121-3.416 0-5.941-2.398-5.941-5.92h.001ZM32.846 40.003l-3.84-5.602h3.458l2.122 3.31 2.143-3.31h3.373l-3.84 5.538 4.01 5.836h-3.458l-2.292-3.544-2.291 3.544h-3.374l3.99-5.772ZM41.733 34.402h3.225v1.612c.742-.956 1.697-1.825 3.33-1.825 2.441 0 3.863 1.613 3.863 4.223v7.36h-3.226V39.43c0-1.528-.721-2.313-1.95-2.313-1.23 0-2.017.785-2.017 2.313v6.343h-3.225V34.402ZM63.247 40.109c0-1.676-1.21-3.14-2.994-3.14-1.847 0-2.95 1.422-2.95 3.14 0 1.676 1.21 3.14 2.994 3.14 1.843 0 2.95-1.422 2.95-3.14Zm-9.124 0c0-3.268 2.63-5.92 6.175-5.92 3.522 0 6.132 2.61 6.132 5.92 0 3.267-2.63 5.92-6.175 5.92-3.523 0-6.134-2.61-6.134-5.92h.002ZM68.492 34.402h3.225v1.612c.743-.956 1.72-1.825 3.353-1.825 1.485 0 2.61.657 3.204 1.803.998-1.167 2.183-1.803 3.735-1.803 2.397 0 3.84 1.443 3.84 4.179v7.405h-3.225V39.43c0-1.528-.68-2.313-1.889-2.313s-1.95.785-1.95 2.313v6.343h-3.227V39.43c0-1.528-.68-2.313-1.89-2.313-1.209 0-1.95.785-1.95 2.313v6.343h-3.226V34.402ZM95.158 41.764v-.572a5.008 5.008 0 0 0-2.058-.425c-1.38 0-2.228.552-2.228 1.613 0 .873.72 1.38 1.76 1.38 1.508 0 2.526-.828 2.526-1.997v.001Zm-7.405.7c0-2.482 1.888-3.628 4.582-3.628a8.085 8.085 0 0 1 2.78.467v-.191c0-1.337-.828-2.08-2.441-2.08-1.23 0-2.1.234-3.14.616l-.803-2.462c1.251-.552 2.482-.912 4.413-.912 1.76 0 3.034.466 3.84 1.273.849.849 1.231 2.1 1.231 3.629v6.597h-3.119v-1.23c-.785.874-1.867 1.444-3.437 1.444-2.143 0-3.904-1.231-3.904-3.523h-.002ZM100.802 34.402h3.226v2.291c.658-1.57 1.719-2.588 3.628-2.503v3.373h-.17c-2.143 0-3.458 1.295-3.458 4.01v4.2h-3.226v-11.37ZM110.13 42.55v-5.39h-1.359v-2.758h1.359v-2.907h3.226v2.907h2.673v2.757h-2.673v4.86c0 .743.317 1.104 1.039 1.104a3.285 3.285 0 0 0 1.592-.403v2.588c-.68.403-1.465.658-2.547.658-1.973 0-3.311-.785-3.311-3.416h.001ZM128.254 30.513l-1.318-2.283-2.737 1.58v-3.16h-2.637v3.16l-2.737-1.58-1.319 2.283 2.738 1.58-2.738 1.581 1.319 2.284 2.737-1.58v3.16h2.637v-3.16l2.737 1.58 1.318-2.284-2.737-1.58 2.737-1.58Z" fill="#000"/></g></svg>