<svg width="136" height="68" fill="none" xmlns="http://www.w3.org/2000/svg"><mask id="a" style="mask-type:luminance" maskUnits="userSpaceOnUse" x="49" y="13" width="38" height="42"><path d="M86.53 13H49.47v42h37.06V13Z" fill="#fff"/></mask><g mask="url(#a)"><path d="M61.48 13c.535.212.714.607.714 1.165-.01 7.426-.01 14.853 0 22.28.001 1.512.195 2.999.767 4.418.662 1.645 1.778 2.824 3.55 3.315 2.182.606 5.134-.055 6.436-3.092.474-1.104.716-2.26.804-3.448.125-1.702.04-3.407.053-5.11.002-.236.07-.284.296-.283 4.045.006 8.09.006 12.136 0 .226 0 .296.048.293.282-.024 1.662.035 3.325-.06 4.986-.156 2.732-.606 5.405-1.621 7.969-1.517 3.833-4.22 6.492-8.11 7.975-2.176.828-4.429 1.298-6.751 1.468-3.082.225-6.114-.045-9.082-.913-1.84-.538-3.572-1.306-5.133-2.42-2.273-1.625-3.735-3.836-4.722-6.385-.746-1.922-1.155-3.922-1.378-5.963-.169-1.547-.2-3.099-.198-4.654.004-6.808.003-13.617-.005-20.425 0-.559.18-.951.712-1.165H61.48Z" fill="#1F3E79"/><path d="M76.595 13c-.055.647.04 1.282.167 1.912.826 4.112 4.241 7.259 8.466 7.8.354.045.71.069 1.065.07.198.002.234.065.233.246-.006 2.171-.006 4.343 0 6.515 0 .215-.045.276-.274.275-3.341-.008-6.682-.01-10.022-.006-.73 0-1.459-.003-2.188.003-.162.002-.239-.02-.239-.212.006-5.195.008-10.39.005-15.586 0-.518.287-.83.75-1.017h2.037Z" fill="#1F3E79"/><path d="M85.63 13a.488.488 0 0 1 .22.047c.024.013.056.017.08.029.388.186.591.489.591.915 0 2.053-.002 4.106.006 6.159 0 .193-.074.213-.238.21-3.307-.062-6.321-2.489-7.045-5.673A8.818 8.818 0 0 1 79.039 13h6.59Z" fill="#EE7F1B"/></g></svg>